<svg xmlns="http://www.w3.org/2000/svg" width="20" height="21.557" viewBox="0 0 20 21.557">
    <path id="Path_112" data-name="Path 112" d="M18.763,2.364h-1.7V0h-2.27V2.364H5.21V0H2.941V2.364h-1.7A1.242,1.242,0,0,0,0,3.609V20.32a1.241,1.241,0,0,0,1.244,1.237H18.763A1.239,1.239,0,0,0,20,20.32V3.609a1.241,1.241,0,0,0-1.237-1.244M16.422,18.009a.3.3,0,0,1-.3.3h-3.8a.3.3,0,0,1-.3-.3V14.216a.3.3,0,0,1,.3-.3h3.8a.3.3,0,0,1,.3.3ZM18.156,8.32H1.852V5.09a.869.869,0,0,1,.867-.874H17.281a.876.876,0,0,1,.874.874Z" fill="#fcfcfc"/>
</svg>
