<svg xmlns="http://www.w3.org/2000/svg" xmlns:xlink="http://www.w3.org/1999/xlink" viewBox="0 0 55.727 42.726">
    <defs>
        <clipPath id="clip-path">
            <rect id="Rectangle_66" data-name="Rectangle 66" width="10" height="10" transform="translate(0)" fill="none"/>
        </clipPath>
    </defs>
    <g id="Group_189" data-name="Group 189" transform="translate(-181.599 -543.274)">
        <g id="Group_141" data-name="Group 141" transform="translate(181.599 543.274)">
            <rect id="Rectangle_62" data-name="Rectangle 62" width="28.774" height="18.892" transform="translate(3.737 1.258)" fill="#ffc92b"/>
            <g id="Group_140" data-name="Group 140">
                <path id="Path_115" data-name="Path 115" d="M55.173,17.461l-4.01-2.724a1.27,1.27,0,0,1-.411-.46l-4.51-8.622a1.265,1.265,0,0,0-1.122-.679h-6.9L35.917.8A1.545,1.545,0,0,0,34.563,0H1.546A1.546,1.546,0,0,0,0,1.547v26.17a1.546,1.546,0,0,0,1.546,1.547H5.263a5.739,5.739,0,0,0,11.461,0h21.02a5.739,5.739,0,0,0,11.461,0h5.254A1.266,1.266,0,0,0,55.727,28v-9.49a1.266,1.266,0,0,0-.555-1.047M29.327,10.577H26.911L25.746,4.515h3.473l.109.385,1.61,5.677ZM5.456,4.515H8.929L7.763,10.577H3.737L5.347,4.9Zm3.939,0h3.622l-.583,6.062H8.23Zm4.088,0H17.1v6.062H12.9Zm4.087,0h3.621l.583,6.062h-4.2Zm4.087,0h3.622l1.165,6.062h-4.2Zm-10.663,27.3a2.866,2.866,0,0,1-2.846-2.556h.64a2.227,2.227,0,0,0,4.412,0h.64a2.866,2.866,0,0,1-2.846,2.556M29.071,18.606H5.6a.257.257,0,0,1-.256-.256V11.043h23.98V18.35a.257.257,0,0,1-.256.256m14.4,13.213a2.866,2.866,0,0,1-2.846-2.556h.64a2.227,2.227,0,0,0,4.412,0h.64a2.866,2.866,0,0,1-2.846,2.556m5.789-16.561H37.7a.094.094,0,0,1-.094-.094v-8.5a.094.094,0,0,1,.094-.094h6.422a1.174,1.174,0,0,1,1.089.762l4.132,7.8a.084.084,0,0,1-.074.123M54.7,21.8a.1.1,0,0,1-.1.1h-1.94a.1.1,0,0,1-.1-.075l-.87-3.3a.1.1,0,0,1,.1-.126H54.6a.1.1,0,0,1,.1.1Z" fill="#232323"/>
            </g>
        </g>
        <g id="Group_188" data-name="Group 188" transform="translate(204.051 576)">
            <g id="Group_180" data-name="Group 180" transform="translate(-0.051)" clip-path="url(#clip-path)">
                <path id="Path_123" data-name="Path 123" d="M5.045,0A5.045,5.045,0,1,0,10.09,5.045,5.045,5.045,0,0,0,5.045,0m0,8.829A3.784,3.784,0,1,1,8.829,5.045,3.784,3.784,0,0,1,5.045,8.829" transform="translate(0.032)" fill="#232323"/>
                <path id="Path_124" data-name="Path 124" d="M4.523,2A2.523,2.523,0,1,1,2,4.523,2.522,2.522,0,0,1,4.523,2" transform="translate(0.555 0.523)" fill="#232323"/>
            </g>
        </g>
    </g>
</svg>
