<svg id="foodtruck_3" data-name="foodtruck 3" xmlns="http://www.w3.org/2000/svg" width="40" height="25.385" viewBox="0 0 40 25.385">
    <path id="Path_108" data-name="Path 108" d="M39.6,12.533l-2.879-1.955a.906.906,0,0,1-.294-.33L33.191,4.059a.908.908,0,0,0-.8-.487H27.431l-1.651-3A1.11,1.11,0,0,0,24.808,0H1.11A1.11,1.11,0,0,0,0,1.11V19.895A1.11,1.11,0,0,0,1.11,21H2.779A5.113,5.113,0,0,1,13,21H26.612c0-.038,0-.076,0-.113s0-.045,0-.067,0-.045,0-.067c0-.007,0-.013,0-.02,0-.032,0-.063.006-.095l0-.038c0-.03.005-.059.008-.088,0-.01,0-.02,0-.03,0-.034.008-.067.012-.1v-.012q.008-.06.017-.118c0-.028.009-.056.014-.084s.007-.04.011-.061c.007-.036.014-.073.022-.109,0-.015.006-.03.01-.045s.01-.044.015-.066q.031-.133.071-.263c.008-.028.016-.056.025-.084s.018-.056.027-.083.02-.059.031-.088c0-.007,0-.013.007-.02.009-.025.019-.051.028-.076.019-.05.038-.1.06-.149l.029-.068c.029-.068.06-.134.093-.2.012-.026.025-.052.039-.078.021-.042.043-.084.066-.126l.035-.062c.015-.027.031-.055.048-.083l.035-.058c.013-.023.028-.046.043-.069l.005-.009.045-.069.035-.052q.141-.21.3-.405.033-.041.068-.081l0,0a5.108,5.108,0,0,1,9,3.239h2.255A.908.908,0,0,0,40,20.1V13.284a.909.909,0,0,0-.4-.751ZM21.051,7.592H19.316L18.48,3.241h2.493l.078.276,1.155,4.075ZM3.916,3.241H6.409L5.572,7.592H2.683L3.838,3.517Zm2.827,0h2.6L8.925,7.592H5.907Zm2.934,0h2.6V7.592H9.26Zm2.934,0h2.6l.418,4.351H12.612Zm2.934,0h2.6l.837,4.351H15.964Zm5.321,10.114H4.022a.184.184,0,0,1-.184-.184V7.927H21.051v5.244a.184.184,0,0,1-.184.184Zm14.5-2.4h-8.3a.068.068,0,0,1-.068-.067v-6.1a.068.068,0,0,1,.068-.068h4.61a.844.844,0,0,1,.782.547l2.966,5.6a.06.06,0,0,1-.053.088Zm3.865,5.037a.072.072,0,0,1-.072.073H37.762a.072.072,0,0,1-.07-.054l-.624-2.367a.072.072,0,0,1,.07-.09h2.016a.072.072,0,0,1,.072.072Z" transform="translate(0)" fill="#232323"/>
    <path id="Path_109" data-name="Path 109" d="M82.677,357.08a4.12,4.12,0,0,0-4.111,3.859c-.005.086-.008.173-.008.26a4.119,4.119,0,0,0,8.239,0c0-.087,0-.174-.008-.26A4.119,4.119,0,0,0,82.677,357.08Zm0,6.032A1.913,1.913,0,1,1,84.59,361.2a1.913,1.913,0,0,1-1.912,1.913Z" transform="translate(-74.786 -339.934)" fill="#232323"/>
    <path id="Path_110" data-name="Path 110" d="M579.018,357.08a4.119,4.119,0,0,0-4.111,3.859c-.005.086-.008.173-.008.26a4.119,4.119,0,0,0,8.239,0q0-.131-.008-.26A4.12,4.12,0,0,0,579.018,357.08Zm0,6.032a1.913,1.913,0,1,1,1.913-1.913,1.913,1.913,0,0,1-1.913,1.913Z" transform="translate(-547.294 -339.934)" fill="#232323"/>
</svg>
