<svg xmlns="http://www.w3.org/2000/svg" width="13.246" height="21.075" viewBox="0 0 13.246 21.075">
    <g id="Group_88" data-name="Group 88" transform="translate(0 0)">
        <path id="Path_26" data-name="Path 26" d="M.961,9.828,11.039.261A.953.953,0,0,1,12.385.3l1.1,1.163a.953.953,0,0,1-.035,1.347L2.189,12.676l-1.263-1.5A.953.953,0,0,1,.961,9.828" transform="translate(-0.554 0)" fill="#ffc92b"/>
        <path id="Path_27" data-name="Path 27" d="M.278,54.593l10.3,9.326a.953.953,0,0,0,1.346-.067L13,62.664a.953.953,0,0,0-.067-1.346L2.111,51.7.28,53.029a1.237,1.237,0,0,0,0,1.565" transform="translate(0 -43.091)" fill="#ffc92b"/>
    </g>
</svg>
