<svg id="Icon_ionic-md-heart-empty" data-name="Icon ionic-md-heart-empty" xmlns="http://www.w3.org/2000/svg" width="28.648" height="25.433" viewBox="0 0 28.648 25.433">
    <path id="Icon_ionic-md-heart-empty-2" data-name="Icon ionic-md-heart-empty" d="M24.145,4.5A8.612,8.612,0,0,0,17.7,7.408,8.612,8.612,0,0,0,11.253,4.5a7.642,7.642,0,0,0-7.878,7.623c0,5.265,4.869,9.491,12.244,16.008l2.08,1.8,2.08-1.8c7.375-6.517,12.244-10.743,12.244-16.008A7.642,7.642,0,0,0,24.145,4.5ZM18.58,26.31l-.289.258-.592.517-.592-.517-.289-.258a85.946,85.946,0,0,1-8.45-8.08c-1.928-2.3-2.782-4.179-2.782-6.107A5.4,5.4,0,0,1,7.218,8.2a5.721,5.721,0,0,1,4.035-1.576,6.419,6.419,0,0,1,4.759,2.153L17.7,10.7l1.687-1.927a6.4,6.4,0,0,1,4.759-2.153A5.75,5.75,0,0,1,28.187,8.2a5.411,5.411,0,0,1,1.632,3.928c0,1.921-.861,3.808-2.782,6.107A86.124,86.124,0,0,1,18.58,26.31Z" transform="translate(-3.375 -4.5)" fill="#ffc92b"/>
</svg>
