<svg id="temp_abstract-2845AB4528AB45_temp" xmlns="http://www.w3.org/2000/svg" width="41.232" height="35.39" viewBox="0 0 41.232 35.39">
    <path id="Path_1" data-name="Path 1" d="M54.414,39.071a.607.607,0,0,1,.063-.019l1.515-.521-1.567-.537h-.01L22.486,27.023a17.051,17.051,0,0,1,0,23.012l8.2-2.816Z" transform="translate(-14.76 -20.83)" fill="#fff"/>
    <path id="Path_2" data-name="Path 2" d="M5.273,12.98l33.809,11.61L20.143,11.3A12.706,12.706,0,0,0,12.8,9h-.32a12.658,12.658,0,0,0-2.113.215L6.189,10l-.07.011L0,11.16Z" transform="translate(0 -9)" fill="#fff"/>
    <path id="Path_3" data-name="Path 3" d="M5.8,78.075,0,80.067l6.112,1.148.061.009,4.2.79a12.449,12.449,0,0,0,2.1.215H12.8a12.713,12.713,0,0,0,7.341-2.3L39.076,66.645Z" transform="translate(0 -46.838)" fill="#fff"/>
</svg>
