<svg xmlns="http://www.w3.org/2000/svg" xmlns:xlink="http://www.w3.org/1999/xlink" width="44.227" height="14" viewBox="0 0 44.227 14">
    <defs>
        <clipPath id="clip-path">
            <rect id="Rectangle_9" data-name="Rectangle 9" width="13.593" height="13.597" fill="#3c3c3c"/>
        </clipPath>
        <clipPath id="clip-path-2">
            <rect id="Rectangle_11" data-name="Rectangle 11" width="19.579" height="13.597" fill="#3c3c3c"/>
        </clipPath>
    </defs>
    <g id="Group_14" data-name="Group 14" transform="translate(-281 -546.5)">
        <g id="Group_9" data-name="Group 9" transform="translate(281 546.903)">
            <g id="Group_8" data-name="Group 8" clip-path="url(#clip-path)">
                <path id="Path_14" data-name="Path 14" d="M9.874,4.76A5.122,5.122,0,1,0,15,9.884,5.129,5.129,0,0,0,9.874,4.76M9.818,9.352,8.342,11.726v.025h1.19a.142.142,0,0,1,.148.148v.19a.149.149,0,0,1-.148.148H7.676a.154.154,0,0,1-.148-.148v-.077L9.046,9.655V9.63h-1.3a.147.147,0,0,1-.141-.148V9.289a.14.14,0,0,1,.141-.144h1.94a.136.136,0,0,1,.13.208m2.328-.409-.859.493v2.652a.151.151,0,0,1-.144.148H10.9a.154.154,0,0,1-.148-.148V9.747l-.394.225a.142.142,0,0,1-.194-.056l-.025-.046a.151.151,0,0,1,.049-.2l.563-.317V6.972a.154.154,0,0,1,.148-.148h.239a.151.151,0,0,1,.144.148V9.042l.69-.4a.149.149,0,0,1,.2.053l.021.049a.15.15,0,0,1-.053.2" transform="translate(-3.077 -3.084)" fill="#3c3c3c"/>
                <path id="Path_15" data-name="Path 15" d="M6.8,0a6.8,6.8,0,1,0,6.8,6.8A6.8,6.8,0,0,0,6.8,0m0,12.625A5.826,5.826,0,1,1,12.625,6.8,5.828,5.828,0,0,1,6.8,12.625" fill="#3c3c3c"/>
            </g>
        </g>
        <line id="Line_1" data-name="Line 1" x2="5.099" transform="translate(297.571 553.298)" fill="none" stroke="#3c3c3c" stroke-linecap="round" stroke-width="1.5"/>
        <g id="Group_13" data-name="Group 13" transform="translate(305.648 546.5)">
            <g id="Group_12" data-name="Group 12" transform="translate(0 0)" clip-path="url(#clip-path-2)">
                <path id="Path_20" data-name="Path 20" d="M41.522,9.884A5.128,5.128,0,0,1,36.451,15c.067-.074.127-.151.187-.229a7.908,7.908,0,0,0,0-9.786c-.06-.077-.12-.155-.183-.229a5.13,5.13,0,0,1,5.064,5.124" transform="translate(-23.615 -3.084)" fill="#3c3c3c"/>
                <path id="Path_21" data-name="Path 21" d="M30.389,3.529c-.014,0-.025.011-.039.014-.039-.042-.077-.081-.12-.123l.018.011c.049.032.1.067.141.1" transform="translate(-19.586 -2.216)" fill="#3c3c3c"/>
                <path id="Path_22" data-name="Path 22" d="M30.352,34.83c.014,0,.025.011.038.014-.045.032-.092.067-.141.1l-.017.011c.042-.042.081-.081.12-.123" transform="translate(-19.586 -22.565)" fill="#3c3c3c"/>
                <path id="Path_23" data-name="Path 23" d="M40.137,6.8a6.8,6.8,0,0,1-6.8,6.8,6.713,6.713,0,0,1-1.609-.194q.291-.2.56-.412c.158-.127.314-.257.462-.4a5.429,5.429,0,0,0,.588.032,5.826,5.826,0,1,0,0-11.652A5.258,5.258,0,0,0,32.76,1c-.148-.141-.3-.271-.465-.4-.18-.144-.37-.282-.563-.412A6.795,6.795,0,0,1,40.137,6.8" transform="translate(-20.558 0)" fill="#3c3c3c"/>
                <path id="Path_24" data-name="Path 24" d="M9.879,4.759A5.122,5.122,0,1,0,15,9.883,5.128,5.128,0,0,0,9.879,4.759M9.822,9.351,8.347,11.724v.025h1.19a.142.142,0,0,1,.148.148v.19a.149.149,0,0,1-.148.148H7.681a.154.154,0,0,1-.148-.148v-.077L9.051,9.654V9.629h-1.3a.147.147,0,0,1-.141-.148V9.287a.14.14,0,0,1,.141-.144h1.94a.136.136,0,0,1,.13.208m2.328-.408-.859.493v2.652a.151.151,0,0,1-.144.148h-.239a.154.154,0,0,1-.148-.148V9.745l-.394.225a.142.142,0,0,1-.194-.056l-.025-.046a.151.151,0,0,1,.049-.2l.563-.317V6.97a.154.154,0,0,1,.148-.148h.239a.151.151,0,0,1,.144.148V9.041l.69-.4a.149.149,0,0,1,.2.053l.021.049a.15.15,0,0,1-.053.2" transform="translate(-3.081 -3.083)" fill="#3c3c3c"/>
                <path id="Path_25" data-name="Path 25" d="M6.8,0a6.8,6.8,0,1,0,6.8,6.8A6.8,6.8,0,0,0,6.8,0m0,12.624A5.826,5.826,0,1,1,12.624,6.8,5.827,5.827,0,0,1,6.8,12.627" transform="translate(0 -0.002)" fill="#3c3c3c"/>
            </g>
        </g>
    </g>
</svg>
