<svg xmlns="http://www.w3.org/2000/svg" width="26.101" height="26.101" viewBox="0 0 26.101 26.101">
    <path id="twitter" d="M23.3,2.25H2.8A2.8,2.8,0,0,0,0,5.047V25.555a2.8,2.8,0,0,0,2.8,2.8H23.3a2.8,2.8,0,0,0,2.8-2.8V5.047A2.8,2.8,0,0,0,23.3,2.25ZM20.456,11.5c.012.163.012.332.012.5A10.8,10.8,0,0,1,9.6,22.869a10.822,10.822,0,0,1-5.867-1.713,8.05,8.05,0,0,0,.921.047,7.661,7.661,0,0,0,4.743-1.631A3.826,3.826,0,0,1,5.82,16.92a4.118,4.118,0,0,0,1.725-.07A3.821,3.821,0,0,1,4.486,13.1v-.047a3.819,3.819,0,0,0,1.725.484,3.813,3.813,0,0,1-1.7-3.181,3.773,3.773,0,0,1,.519-1.928,10.85,10.85,0,0,0,7.877,4,3.829,3.829,0,0,1,6.52-3.49,7.488,7.488,0,0,0,2.424-.921,3.811,3.811,0,0,1-1.678,2.1,7.6,7.6,0,0,0,2.2-.594A8.043,8.043,0,0,1,20.456,11.5Z" transform="translate(0 -2.25)" fill="#fff"/>
</svg>
