<svg id="Group_29" data-name="Group 29" xmlns="http://www.w3.org/2000/svg" xmlns:xlink="http://www.w3.org/1999/xlink" width="20" height="20" viewBox="0 0 20 20">
    <defs>
        <clipPath id="clip-path">
            <rect id="Rectangle_18" data-name="Rectangle 18" width="20" height="20" fill="#fff"/>
        </clipPath>
    </defs>
    <g id="Group_28" data-name="Group 28" clip-path="url(#clip-path)">
        <path id="Path_49" data-name="Path 49" d="M10,0A10,10,0,1,0,20,10,10,10,0,0,0,10,0m1.4,15.734a.371.371,0,0,1-.358.358H8.972a.371.371,0,0,1-.358-.358V8.91a.358.358,0,0,1,.358-.358h2.074a.358.358,0,0,1,.358.358ZM9.99,6.905A1.48,1.48,0,0,1,8.5,5.416,1.5,1.5,0,0,1,9.99,3.908,1.513,1.513,0,0,1,11.5,5.416,1.5,1.5,0,0,1,9.99,6.905" fill="#fff"/>
    </g>
</svg>
