<svg xmlns="http://www.w3.org/2000/svg" width="30.667" height="28" viewBox="0 0 30.667 28">
    <path id="Icon_material-add-a-photo" data-name="Icon material-add-a-photo" d="M4,5.5v-4H6.667v4h4V8.167h-4v4H4v-4H0V5.5Zm4,8v-4h4v-4h9.333l2.44,2.667H28a2.675,2.675,0,0,1,2.667,2.667v16A2.675,2.675,0,0,1,28,29.5H6.667A2.675,2.675,0,0,1,4,26.833V13.5Zm9.333,12a6.667,6.667,0,1,0-6.667-6.667A6.669,6.669,0,0,0,17.333,25.5Zm-4.267-6.667a4.267,4.267,0,1,0,4.267-4.267A4.262,4.262,0,0,0,13.067,18.833Z" transform="translate(0 -1.5)" fill="#fcfcfc"/>
</svg>
