<svg xmlns="http://www.w3.org/2000/svg" width="21.075" height="13.246" viewBox="0 0 21.075 13.246">
    <g id="Group_88" data-name="Group 88" transform="translate(0 13.246) rotate(-90)">
        <path id="Path_26" data-name="Path 26" d="M.3,2.848l10.077,9.566a.953.953,0,0,0,1.347-.035l1.1-1.163A.953.953,0,0,0,12.79,9.87L1.524,0,.262,1.5A.953.953,0,0,0,.3,2.848" transform="translate(0.111 8.399)" fill="#ffc92b"/>
        <path id="Path_27" data-name="Path 27" d="M.278,9.573,10.578.246a.953.953,0,0,1,1.346.067L13,1.5a.953.953,0,0,1-.067,1.346L2.111,12.469.28,11.137a1.237,1.237,0,0,1,0-1.565" transform="translate(0 0)" fill="#ffc92b"/>
    </g>
</svg>
