<svg id="Group_228" data-name="Group 228" xmlns="http://www.w3.org/2000/svg" xmlns:xlink="http://www.w3.org/1999/xlink" width="30.835" height="32" viewBox="0 0 30.835 32">
    <defs>
        <clipPath id="clip-path">
            <rect id="Rectangle_88" data-name="Rectangle 88" width="30.835" height="32" fill="none"/>
        </clipPath>
    </defs>
    <g id="Group_227" data-name="Group 227" clip-path="url(#clip-path)">
        <path id="Path_199" data-name="Path 199" d="M60.164,56.385h-5.75a.454.454,0,0,0-.454.454v5.739a.454.454,0,0,0,.454.454h5.75a.454.454,0,0,0,.454-.454V56.839a.454.454,0,0,0-.454-.454" transform="translate(-42.227 -44.125)" fill="#232323"/>
        <path id="Path_200" data-name="Path 200" d="M59.736,97.895h-5.75a.454.454,0,0,0-.454.454v5.739a.454.454,0,0,0,.454.454h5.75a.454.454,0,0,0,.454-.454V98.349a.454.454,0,0,0-.454-.454" transform="translate(-41.892 -76.609)" fill="#232323"/>
        <path id="Path_201" data-name="Path 201" d="M21.736,97.895h-5.75a.454.454,0,0,0-.454.454v5.739a.454.454,0,0,0,.454.454h5.75a.454.454,0,0,0,.454-.454V98.349a.454.454,0,0,0-.454-.454" transform="translate(-12.155 -76.609)" fill="#232323"/>
        <path id="Path_202" data-name="Path 202" d="M92.986,63.542h5.75a.454.454,0,0,0,.454-.454V57.349a.454.454,0,0,0-.454-.454h-5.75a.454.454,0,0,0-.454.454v5.739a.454.454,0,0,0,.454.454" transform="translate(-72.412 -44.524)" fill="#232323"/>
        <path id="Path_203" data-name="Path 203" d="M21.736,56.9h-5.75a.454.454,0,0,0-.454.454v5.739a.454.454,0,0,0,.454.454h5.75a.454.454,0,0,0,.454-.454V57.349a.454.454,0,0,0-.454-.454" transform="translate(-12.155 -44.524)" fill="#232323"/>
        <path id="Path_204" data-name="Path 204" d="M30.154,23.385V10.367h0V8.628h0V5.908a3.117,3.117,0,0,0-3-3.394H24.883V1.337A1.3,1.3,0,0,0,23.631,0h-.35a1.3,1.3,0,0,0-1.252,1.337V2.514H8.128V1.337A1.3,1.3,0,0,0,6.875,0H6.523A1.3,1.3,0,0,0,5.271,1.337V2.514H3A3.182,3.182,0,0,0,0,5.908V29.693a1.879,1.879,0,0,0,1.879,1.872H22.746a5.873,5.873,0,0,0,4.436,0,5.887,5.887,0,0,0,2.972-2.692,5.872,5.872,0,0,0,0-5.488M3,4.253H5.271v.794A1.3,1.3,0,0,0,6.523,6.384h.352A1.3,1.3,0,0,0,8.128,5.047V4.253h13.9v.794a1.3,1.3,0,0,0,1.252,1.337h.35a1.3,1.3,0,0,0,1.252-1.337V4.253h2.268c.631,0,1.263.511,1.263,1.655v2.72H1.739V5.908c0-1.25.85-1.655,1.263-1.655M1.879,29.826a.136.136,0,0,1-.139-.133V10.367H28.414V21.38a5.869,5.869,0,0,0-8.008,8.445Zm26.549-3.509a.759.759,0,0,1-.013.141.779.779,0,0,1-.761.635H25.927v1.726a.778.778,0,0,1-.776.774h-.374A.778.778,0,0,1,24,28.819V27.092H22.274a.778.778,0,0,1-.774-.776v-.374a.778.778,0,0,1,.774-.776H24V23.44a.778.778,0,0,1,.776-.774h.374a.778.778,0,0,1,.776.774v1.726h1.726a.779.779,0,0,1,.761.635.759.759,0,0,1,.013.141Z" fill="#232323"/>
    </g>
</svg>
