<svg xmlns="http://www.w3.org/2000/svg" viewBox="0 0 512 512" style="enable-background:new 0 0 512 512" xml:space="preserve"><circle r="256" cx="256" cy="256" fill="#f6f6f6" transform="matrix(.69 0 0 .69 79.36 79.36)"/><path d="M256 76.8c-99.043 0-179.2 80.15-179.2 179.2 0 99.043 80.15 179.2 179.2 179.2 99.043 0 179.2-80.15 179.2-179.2 0-99.043-80.15-179.2-179.2-179.2zm-8.599 222.178-40.685 40.692c-4.595 4.587-10.698 7.116-17.19 7.116-13.437 0-24.313-10.868-24.313-24.313 0-6.492 2.528-12.595 7.116-17.19l40.692-40.685c4.75-4.749 4.75-12.448 0-17.198l-40.692-40.684c-4.587-4.596-7.116-10.698-7.116-17.19 0-13.437 10.868-24.314 24.314-24.314 6.491 0 12.594 2.53 17.19 7.116l40.684 40.693c4.75 4.74 12.449 4.74 17.198 0l40.685-40.693c4.595-4.587 10.698-7.116 17.19-7.116 13.437 0 24.313 10.868 24.313 24.314 0 6.492-2.528 12.594-7.116 17.19L298.979 247.4c-4.75 4.75-4.75 12.449 0 17.198l40.692 40.685c4.587 4.595 7.116 10.698 7.116 17.19 0 13.437-10.868 24.314-24.314 24.314-6.491 0-12.594-2.53-17.19-7.117L264.6 298.978c-4.749-4.749-12.449-4.741-17.198 0z" xmlns="http://www.w3.org/2000/svg"/></svg>