<svg xmlns="http://www.w3.org/2000/svg" width="101.489" height="92.606" viewBox="0 0 101.489 92.606">
    <g id="Group_195" data-name="Group 195" transform="translate(-121.411 -103.333)">
        <g id="Group_193" data-name="Group 193" transform="translate(126.132 103.333)">
            <path id="Path_174" data-name="Path 174" d="M43.332.422,0,33.793H89.143L45.811.422a2.033,2.033,0,0,0-2.479,0" transform="translate(0 0)" fill="#fbb615"/>
            <path id="Path_175" data-name="Path 175" d="M44.571,64.615,0,30.289H89.143Z" transform="translate(0 3.506)" fill="#fbb615"/>
            <rect id="Rectangle_71" data-name="Rectangle 71" width="72.641" height="72.641" transform="translate(8.808 6.874)" fill="#fcfcfc" stroke="#ffc92b" stroke-width="0.1"/>
            <g id="Group_194" data-name="Group 194" transform="translate(19.685 25.974)" opacity="0.16">
                <g id="Group_194-2" data-name="Group 194">
                    <path id="Path_180" data-name="Path 180" d="M0,0H24.2V13.02H3.334l.881-1.5L3.847,9.793l.2-1.8-1.4-1.952-.5-1.989L.42,3.144Z" transform="translate(6.756 3.597)" fill="#fcfcfc"/>
                    <rect id="Rectangle_78" data-name="Rectangle 78" width="4.461" height="4.461" transform="translate(45.905 15.432)" fill="#fcfcfc"/>
                    <path id="Path_179" data-name="Path 179" d="M0,0H7.7l4.7,8.8H0Z" transform="translate(33.875 5.601)" fill="#fcfcfc"/>
                    <path id="Path_153" data-name="Path 153" d="M1294.655,9.913h-.184a.083.083,0,0,0-.086.082.113.113,0,0,0,0,.03.092.092,0,0,0,.08.091l.124.022a1.515,1.515,0,0,0,.228.022h.1V9.914h-.267m0,0h-.184a.083.083,0,0,0-.086.082.113.113,0,0,0,0,.03.092.092,0,0,0,.08.091l.124.022a1.515,1.515,0,0,0,.228.022h.1V9.914h-.267m42.918,5.488-3.537-2.4a1.119,1.119,0,0,1-.363-.406l-3.978-7.6a1.117,1.117,0,0,0-.99-.6h-6.089L1320.706.706A1.363,1.363,0,0,0,1319.512,0h-27.943a1.364,1.364,0,0,0-1.363,1.364v4.71c.195.1.376.2.547.3s.352.221.51.334c2.546,1.833,1.878,4.081,2.109,4.173a3.309,3.309,0,0,1,.764.409,1.291,1.291,0,0,1,.447,1.528,2.2,2.2,0,0,1-.859,1.4c-.076.054-.509.074-.451.151a1.557,1.557,0,0,1-.344,2.458c-.014-.006-.173.081-.509.2a.23.23,0,0,0-.037.017.958.958,0,0,0-.533.788c-.021.3-.465.163-.568.433a.735.735,0,0,1-.4.466c-.093.032-.176.063-.252.1a1.65,1.65,0,0,0-.422.244v5.372a1.364,1.364,0,0,0,1.363,1.364h3.279a5.062,5.062,0,0,0,10.109,0H1322.2a5.062,5.062,0,0,0,10.11,0h4.635a1.116,1.116,0,0,0,1.117-1.117V16.325a1.115,1.115,0,0,0-.489-.923M1312.5,3.982l1.028,5.347h-3.709l-.513-5.347Zm-6.8,0h3.194l.514,5.347H1305.7Zm-.412,0V9.329h-3.708l.514-5.347Zm-3.605,0-.514,5.347h-3.708l1.028-5.347ZM1299.9,28.066a2.528,2.528,0,0,1-2.511-2.254h.565a1.964,1.964,0,0,0,3.891,0h.564a2.528,2.528,0,0,1-2.51,2.254m16.17-11.881a.226.226,0,0,1-.226.226h-18.992a2.541,2.541,0,0,1-1.079.353,1.044,1.044,0,0,0-.191.034c-.152-.072-.311-.152-.48-.238,0,0-1.466-.4-.845-.053.164.089.828.407,1.145.529a1.092,1.092,0,0,0,.05.241c.074.247.149.494.217.743a8.09,8.09,0,0,1,.255,1.29c.077.771-.639.8-1.417.949a4.3,4.3,0,0,1-1.114-.717,1.948,1.948,0,0,0-.3-.217c-.238-.133-.358-.081-.337.057a1.056,1.056,0,0,0,.508.585,5.967,5.967,0,0,0,.921.482.193.193,0,0,0-.027.068c-.1.841-1.248.707-1.953.14,0,0-.156-.083-.373-.212a3.682,3.682,0,0,1-1.21-.978.2.2,0,0,1,.095-.287c.786-.425,1.517-.551,1.414-1.277-.009-.288.051-.273.131-.368.331-.389.529-.31.689-.432a.013.013,0,0,1,.008-.006c.043-.022.085-.042.123-.067a2.976,2.976,0,0,0,.784-.661s0,0,0,0a1.91,1.91,0,0,0,.465-1.039,1.219,1.219,0,0,0-.109-.631.51.51,0,0,1,.069-.46,3.581,3.581,0,0,0,.626-1.139V11.568a1.517,1.517,0,0,0-.594-.749,1.133,1.133,0,0,0-.55-.179,3.115,3.115,0,0,0-.087-1.311h-.188L1293.6,9a5.893,5.893,0,0,0-1.055-1.862q-.231-.284-.521-.581c-.213-.217-.452-.437-.717-.658-.046-.039-.095-.078-.143-.117.475-.217.444-.424.911-.581a.308.308,0,0,1,.06-.015c.6-.112,1.391,1,1.7,1.608-.107-.007-.222.048-.335.044l-.259-.011a.775.775,0,0,1-.161-.016l-.088.011-.059.031a.251.251,0,0,0-.086.087.074.074,0,0,0,.061.11h0c.156.006.7-.011.811,0s.228.025.349.041c.02.017.041-.084.061-.068l.117-.3.683-2.405.1-.339h3.063l-1.029,5.347h-1.113a2.138,2.138,0,0,1-.087.367c-.005.014-.01.029-.015.044h20.236Zm-2.131-6.856-1.028-5.347h3.063l.1.339,1.42,5.008Zm13.313,18.737a2.529,2.529,0,0,1-2.51-2.254h.564a1.965,1.965,0,0,0,3.892,0h.564a2.529,2.529,0,0,1-2.51,2.254m5.106-14.607h-10.2a.083.083,0,0,1-.083-.083v-7.5a.083.083,0,0,1,.083-.083h5.664a1.035,1.035,0,0,1,.961.672l3.644,6.882a.074.074,0,0,1-.066.109m4.793,5.768a.089.089,0,0,1-.088.089h-1.711a.089.089,0,0,1-.086-.066l-.767-2.909a.088.088,0,0,1,.086-.111h2.478a.088.088,0,0,1,.088.089Zm-42.684-9.315a.083.083,0,0,0-.086.082.113.113,0,0,0,0,.03.092.092,0,0,0,.08.091l.124.022a1.515,1.515,0,0,0,.228.022h.1V9.914h-.452" transform="translate(-1287.059 0)" fill="#232323"/>
                    <path id="Path_154" data-name="Path 154" d="M1291.635,84.006h-.184a.083.083,0,0,0-.086.082.155.155,0,0,0,0,.03.093.093,0,0,0,.08.091l.124.022a1.526,1.526,0,0,0,.228.022h.1v-.247h-.267m0,0h-.184a.083.083,0,0,0-.086.082.155.155,0,0,0,0,.03.093.093,0,0,0,.08.091l.124.022a1.526,1.526,0,0,0,.228.022h.1v-.247h-.267m3.668,5.246a3.356,3.356,0,0,0-.377-1.109,1.121,1.121,0,0,1-.1-1.024,2.762,2.762,0,0,0-1.026-3.142,1.14,1.14,0,0,1-.133-.127.129.129,0,0,1-.014-.017,1.428,1.428,0,0,1-.243-.411c-.013-.035-.024-.07-.034-.1-.128-.457-.167-.932-.264-1.4a1.209,1.209,0,0,0-1.059-.975c-.254-.048-.511-.08-.836-.128l-.025,0a2.511,2.511,0,0,0-1.818-1.767,3.967,3.967,0,0,0-2.157.2c0,.153.045.313-.034.433v.48c.195.1.376.2.547.3s.352.221.509.334c2.546,1.833,1.878,4.081,2.109,4.173a3.3,3.3,0,0,1,.764.409,1.291,1.291,0,0,1,.447,1.528,2.2,2.2,0,0,1-.859,1.4c-.077.054-.509.074-.451.15a1.557,1.557,0,0,1-.345,2.458c-.014-.006-.173.081-.509.2a.229.229,0,0,0-.037.017.959.959,0,0,0-.534.788c-.02.3-.464.163-.568.433a.731.731,0,0,1-.4.466c-.093.032-.176.063-.252.1a1.651,1.651,0,0,0-.422.244.482.482,0,0,0-.2.34.611.611,0,0,0,.2.434c.026.029.053.057.083.085a7.188,7.188,0,0,0,1.339.859,2.4,2.4,0,0,1,.32.2c.61.512,1.67.909,2.268.319.107-.106.2-.224.374-.424.052-.056.094-.109.13-.157.1-.124.152-.212.152-.212l.083-.032c.63-.258,1.313-.329,1.32-1a8.705,8.705,0,0,0-.157-1.358,4.184,4.184,0,0,0-.11-.462c-.016-.053-.03-.1-.041-.147.074-.022.146-.042.215-.06s.148-.034.217-.054a1.086,1.086,0,0,0,.3-.124.05.05,0,0,0,.016-.011c.395-.253.751-.558,1.128-.836l.032-.025a1.2,1.2,0,0,0,.447-1.252m-2.546,1.6a1.031,1.031,0,0,0-.191.034c-.152-.072-.311-.152-.48-.238,0,0-1.467-.4-.845-.053.164.089.829.407,1.145.529a1.089,1.089,0,0,0,.05.241c.074.247.148.494.217.743a8.115,8.115,0,0,1,.254,1.29c.077.771-.639.8-1.417.949a4.3,4.3,0,0,1-1.114-.717,1.935,1.935,0,0,0-.3-.217c-.238-.133-.358-.081-.337.057a1.056,1.056,0,0,0,.507.585,5.978,5.978,0,0,0,.922.482.194.194,0,0,0-.026.068c-.1.841-1.247.707-1.954.14,0,0-.156-.083-.373-.212a3.675,3.675,0,0,1-1.209-.978.2.2,0,0,1,.094-.287c.786-.425,1.518-.551,1.415-1.278-.009-.288.051-.273.131-.368.331-.389.529-.31.688-.432,0,0,0-.005.008-.006.042-.022.085-.042.123-.067a2.973,2.973,0,0,0,.784-.661v0a1.913,1.913,0,0,0,.466-1.038,1.222,1.222,0,0,0-.109-.631.511.511,0,0,1,.069-.46,3.551,3.551,0,0,0,.625-1.139,2.661,2.661,0,0,0,.111-1.061,1.768,1.768,0,0,0-.111-.471,1.517,1.517,0,0,0-.594-.749,1.136,1.136,0,0,0-.55-.179,3.118,3.118,0,0,0-.087-1.311c-.027-.1-.058-.214-.1-.327a5.878,5.878,0,0,0-1.055-1.862q-.23-.284-.521-.581-.319-.325-.717-.659c-.046-.039-.094-.078-.143-.117.475-.217.444-.424.911-.581a.321.321,0,0,1,.059-.015c.6-.112,1.392,1,1.7,1.608-.108-.007-.222.048-.336.044l-.258-.011-.088,0-.149-.009c-.023.014-.047.027-.072.039-.064.035-.057.2-.024.2.156.006.7-.011.81,0s1,.085,1.1.132a1.851,1.851,0,0,1,1.133,2.148,2.063,2.063,0,0,1-.087.367l-.015.044c-.012.038-.027.018-.042.057-.293,0-.584.117-.874.116h-.451a.083.083,0,0,0-.086.082.155.155,0,0,0,0,.03.093.093,0,0,0,.08.091l.124.022a1.526,1.526,0,0,0,.228.022h.1c.433,0,.865-.07,1.3-.067h.042a.539.539,0,0,1,.241.109l.005,0a2.155,2.155,0,0,1,1.062,2.353,1.905,1.905,0,0,1-.465.835,2.233,2.233,0,0,0-.21.286c-1.2-.168-1.62-.078-1.763.331.619-.01,1.256-.047,1.892-.017a.887.887,0,0,1,.564.317c.017.024.033.048.048.072a1.107,1.107,0,0,1-.025,1.292,2.468,2.468,0,0,1-.695.7l-.059.038a2.543,2.543,0,0,1-1.079.353m-1.122-6.851h-.184a.083.083,0,0,0-.086.082.155.155,0,0,0,0,.03.093.093,0,0,0,.08.091l.124.022a1.526,1.526,0,0,0,.228.022h.1v-.247h-.267m0,0h-.184a.083.083,0,0,0-.086.082.155.155,0,0,0,0,.03.093.093,0,0,0,.08.091l.124.022a1.526,1.526,0,0,0,.228.022h.1v-.247h-.267" transform="translate(-1284.039 -74.093)" fill="#232323"/>
                    <path id="Path_155" data-name="Path 155" d="M1303.761,145.886a1.585,1.585,0,0,0-.346-.262.558.558,0,0,0-.264-.074.291.291,0,0,0-.186.071.471.471,0,0,0-.13.225.967.967,0,0,0,.042.611.6.6,0,0,0,.332.356.686.686,0,0,0,.6-.121c.03-.02.059-.041.089-.063.05-.039.051-.133.042-.19,0-.027-.034-.144-.085-.105a1.107,1.107,0,0,1-.314.175l.017-.006a.531.531,0,0,1-.308.016l.018.005a.439.439,0,0,1-.114-.051.48.48,0,0,1-.048-.035l-.011-.01c-.016-.014.016.015,0,0l-.023-.023a.563.563,0,0,1-.038-.046l-.017-.024-.008-.013,0-.006c-.01-.016.015.026.007.013s-.019-.035-.028-.053l-.012-.028c-.006-.014-.02-.057,0,0a.587.587,0,0,1-.019-.06c0-.009,0-.018-.007-.027-.006-.029.006.032,0,.019l0-.017c0-.02-.006-.041-.008-.061s0,.054,0,.024a.082.082,0,0,0,0-.012c0-.01,0-.021,0-.031s0-.01,0-.014c0-.028,0,.048,0,.024s0-.02,0-.03,0-.018,0-.028c0-.025-.005.034,0,.023s0-.01,0-.016l.006-.026a.083.083,0,0,0,0-.013c.007-.026-.011.033,0,.015a.468.468,0,0,1,.018-.047l.007-.013c.006-.012-.016.029-.009.017l0-.007.015-.024a.2.2,0,0,1,.017-.022l.008-.01c.01-.012-.02.019-.006.006a.268.268,0,0,1,.093-.056l-.017.006a.341.341,0,0,1,.2,0l-.018-.005a.982.982,0,0,1,.338.194l.057.048.027.024.006.005,0,0,.016.015c.015.015.03.027.052.014a.119.119,0,0,0,.038-.072.324.324,0,0,0,0-.118.173.173,0,0,0-.033-.091" transform="translate(-1298.876 -136.547)" fill="#232323"/>
                    <path id="Path_156" data-name="Path 156" d="M1265.719,232.645c.122-.423-.279-.838-.655-.952a.576.576,0,0,0-.568.1.842.842,0,0,0-.167.653,1.287,1.287,0,0,1-.022.327.975.975,0,0,1-.067.192,1.8,1.8,0,0,0-.126.243.965.965,0,0,0,.021.626.778.778,0,0,0,.774.43.845.845,0,0,0,.826-.662.259.259,0,0,0-.029-.209c-.046-.048-.081.012-.09.057a.573.573,0,0,1-.2.324.824.824,0,0,1-.38.169.8.8,0,0,1-.738-.208c-.015-.017-.041-.055-.045-.062s-.012-.024-.019-.037l-.009-.022c-.005-.012,0,.013,0-.009s-.013-.053-.008-.023a.448.448,0,0,1-.007-.051c0,.034,0-.016,0-.026,0,.031,0-.033,0-.044a.214.214,0,0,1,.007-.038.328.328,0,0,1,.016-.063c-.01.021,0,.011.015-.011s.02-.033.03-.049q.03-.053.057-.108a1.353,1.353,0,0,0,.113-.387,2.04,2.04,0,0,0,.016-.335c0-.046,0-.091,0-.137,0-.018,0-.073.006-.09a.367.367,0,0,1,.366-.278.823.823,0,0,1,.557.221.793.793,0,0,1,.174.2.3.3,0,0,1,.039.094c-.007-.026,0-.006,0,0,.007.035,0-.028,0,.007,0-.019,0-.024,0,0a.251.251,0,0,0,.029.209c.048.05.078-.014.09-.057" transform="translate(-1262.54 -217.331)" fill="#232323"/>
                    <path id="Path_157" data-name="Path 157" d="M1250.941,198.655a.457.457,0,0,1-.4.025c-.011-.007-.022-.014-.033-.022l-.014-.011c.015.013,0,0,0,0s-.019-.021-.028-.033l-.008-.012c-.011-.014.008.019,0-.008s-.012-.027-.018-.041c.016.037,0,0,0-.013s-.013-.014,0,.006a.1.1,0,0,1,0-.024s0-.024,0-.024,0,.041,0,.008c0-.008,0-.017,0-.025,0-.032,0,.038,0,.007s0-.035.005-.052.007-.022,0,.01c0-.009,0-.018.005-.027l.006-.027c0-.007.015-.046,0-.013a.858.858,0,0,1,.04-.1s.016-.03.005-.01l.01-.017a.687.687,0,0,1,.038-.059.712.712,0,0,1,.161-.165.305.305,0,0,1,.111-.06.394.394,0,0,1,.15-.007.323.323,0,0,1,.133.054.337.337,0,0,1,.084.088c.006.01.011.021.016.032s.006.015,0,0c0,.008,0,.015.007.023-.009-.032,0,.007,0,.012-.008-.049,0,.03,0,0s0,.019,0,.019c0-.027-.006.026-.008.031,0-.017-.011.029-.009.024-.007.016-.013.032-.021.046a.28.28,0,0,0-.019.21c.009.032.058.116.093.053a.666.666,0,0,0-.092-.824.4.4,0,0,0-.322-.078.539.539,0,0,0-.279.177.92.92,0,0,0-.245.548.683.683,0,0,0,.143.538.474.474,0,0,0,.552.034c.082-.037.052-.338-.043-.295" transform="translate(-1249.606 -185.42)" fill="#232323"/>
                    <path id="Path_158" data-name="Path 158" d="M1313.462,180.7c.025,0,.05.01.074.017l-.018-.005a.675.675,0,0,1,.173.075.59.59,0,0,1,.064.047c.015.013-.01-.011,0,0l.013.013a.333.333,0,0,1,.025.03l.01.014s.013.022,0,.005l0,.006.009.018.006.015c.008.019-.01-.031,0-.01s.007.052,0,0c0,.005,0,.011,0,.016,0,.024,0-.044,0-.019,0,.005,0,.011,0,.016,0,.025,0-.042,0-.019,0,.005,0,.011,0,.017,0-.047.005-.027,0-.015l0,.019c0,.009.011-.034,0-.007l.028-.04-.014,0,.018-.006a.928.928,0,0,1-.539.026l.018.005a.514.514,0,0,1-.148-.066l-.027-.02s-.017-.016,0,0,0,0-.006-.007l-.019-.023-.009-.012c0,.005.015.027,0,.007l-.006-.013c-.007-.015.011.037.006.016a.072.072,0,0,0,0-.012c.016.047.008.034,0,.018.01.053,0,.041,0,.024s0,.052,0,.024-.008.045,0,.021v-.006c0-.015-.013.033-.006.019a.1.1,0,0,0,.005-.013c.009-.021,0,.006,0,.007a.327.327,0,0,1,.02-.03l.01-.012c.014-.017-.013.012,0,0s.021-.019.032-.027a.764.764,0,0,1,.225-.111l-.017.006c.045-.015.091-.028.137-.039s.066-.106.064-.155a.26.26,0,0,0-.023-.108c-.008-.016-.026-.049-.049-.044a1.225,1.225,0,0,0-.312.112.426.426,0,0,0-.16.142.411.411,0,0,0,.071.507.632.632,0,0,0,.4.128.99.99,0,0,0,.273-.034l.067-.02a.2.2,0,0,0,.031-.011.088.088,0,0,0,.029-.04.432.432,0,0,0,.019-.061.622.622,0,0,0,.012-.22.5.5,0,0,0-.164-.325.685.685,0,0,0-.338-.153c-.021,0-.041.033-.047.046a.267.267,0,0,0-.017.109c0,.049.01.14.071.152" transform="translate(-1308.438 -169.212)" fill="#232323"/>
                    <path id="Path_159" data-name="Path 159" d="M1304.459,212.1a1.92,1.92,0,0,0-.33.562,1.1,1.1,0,0,0,.049.65c.091.261.359.674.677.43a1.178,1.178,0,0,0,.337-.612,1.561,1.561,0,0,0,.056-.778.322.322,0,0,0-.16-.242.342.342,0,0,0-.3.084c-.078.055-.033.348.043.295a.345.345,0,0,1,.215-.084.117.117,0,0,1,.056.024c-.005,0,.014.018.02.025s-.01-.018,0,0,.015.035.008.016.013.05.006.022,0,.007,0,.012,0,.022,0,.032c0,.028,0-.031,0,0,0,.01,0,.02,0,.03s0,.025,0,.037c0,.036,0-.019,0,.008,0,.048-.008.1-.014.144,0,.021,0-.022,0,0,0,.006,0,.012,0,.018l-.007.036c-.005.027-.011.053-.018.079a1.25,1.25,0,0,1-.228.505.306.306,0,0,1-.216.115.369.369,0,0,1-.295-.211.909.909,0,0,1-.094-.228.609.609,0,0,1-.03-.194.632.632,0,0,1,.116-.254c.057-.088.122-.172.184-.258a.265.265,0,0,0,.019-.21c-.011-.039-.052-.11-.093-.053" transform="translate(-1300.092 -198.956)" fill="#232323"/>
                    <path id="Path_160" data-name="Path 160" d="M1283.021,164.64a.254.254,0,0,0-.228.116.437.437,0,0,0-.064.193.55.55,0,0,0,.021.225.16.16,0,0,0,.025.054.045.045,0,0,0,.035.02l.151-.042c.051-.015.1-.027.155-.045a.193.193,0,0,0,.1-.2.27.27,0,0,0-.045-.161c-.014-.018-.04-.039-.065-.031a.033.033,0,0,0-.026.014.068.068,0,0,0-.021.032.268.268,0,0,0-.017.109.261.261,0,0,0,.023.108c.008.015.026.05.048.044a.027.027,0,0,1,.014,0l-.018-.005a.036.036,0,0,1,.012.007l-.017-.015.007.009-.014-.024,0,0a.159.159,0,0,1-.011-.038.14.14,0,0,1,0-.08c.013-.065.014-.085,0-.062l.013-.024a.1.1,0,0,1-.01.015l.015-.016a.118.118,0,0,1-.041.022l.017-.006c-.094.031-.192.054-.288.081l.06.075c0-.007,0-.014-.006-.021s0-.007,0,.021a.081.081,0,0,1,0-.011c0-.015,0-.007,0,.024,0,0,0-.007,0-.011,0-.032,0,.03,0,.016s.008-.034,0,.013l0-.021c0-.012,0-.007-.005.016l0-.01.009-.02-.013.024a.224.224,0,0,1,.037-.051l-.016.016a.225.225,0,0,1,.082-.052l-.018.006a.209.209,0,0,1,.086-.01c.022,0,.04-.031.046-.046a.3.3,0,0,0-.005-.217c-.01-.02-.023-.041-.048-.044" transform="translate(-1280.041 -154.454)" fill="#232323"/>
                    <path id="Path_161" data-name="Path 161" d="M1239.624,245.69a.168.168,0,0,0-.167.025.336.336,0,0,0-.111.2.875.875,0,0,0-.015.281.21.21,0,0,0,.135.2.632.632,0,0,0,.4-.019.27.27,0,0,0,.078-.038.214.214,0,0,0,.066-.152.248.248,0,0,0-.118-.259.751.751,0,0,0-.223-.047,1.3,1.3,0,0,0-.245,0c-.058,0-.065.113-.064.155a.27.27,0,0,0,.023.108c.009.018.024.046.049.044a1.255,1.255,0,0,1,.422.034l-.018,0a.2.2,0,0,1,.05.022c.005,0,.02.02.008,0l.008.01a.162.162,0,0,1-.023-.062l0-.081a.192.192,0,0,1,.018-.06c.007-.006.006-.006,0,0l-.025.014a.635.635,0,0,1-.065.026l.017-.006a.615.615,0,0,1-.341.012l.018.005a.183.183,0,0,1-.047-.02l-.009-.007c.006.006.007.006,0,0s-.005,0,.012.029a.153.153,0,0,1,.005.032c0,.029,0-.009,0-.014,0-.03,0,.036,0,0s0-.037,0-.055-.008.031,0,0l0-.013c0-.009,0-.006,0,.01a.141.141,0,0,0,.01-.025c-.008.02,0,0,0,0l.014-.018c-.011.013,0,0,.007,0a.175.175,0,0,1,.046-.025l-.018.006a.127.127,0,0,1,.071,0l-.018-.005.014.005c.058.023.077-.07.08-.109a.323.323,0,0,0-.01-.118c-.007-.022-.017-.06-.042-.07" transform="translate(-1239.324 -230.481)" fill="#232323"/>
                    <path id="Path_162" data-name="Path 162" d="M1242.737,245.648a.22.22,0,0,1,.078.007l-.018-.005a.226.226,0,0,1,.091.051l-.016-.015a.211.211,0,0,1,.036.045l-.014-.024.01.018a.034.034,0,0,0,0,.011s-.011-.033-.007-.018l0,.011a.013.013,0,0,1,0,0c0,.011,0,0,0-.025,0,.008,0,.036,0,0s0-.006,0,0,0-.046,0-.027v.011c0,.015.007-.038,0-.023l0,.011c0,.016.006-.019.006-.018s0,.009,0,.013a.277.277,0,0,0-.017.109.257.257,0,0,0,.022.108c.009.017.025.047.048.044a.065.065,0,0,0,.047-.046.522.522,0,0,0,.027-.252.417.417,0,0,0-.07-.19.261.261,0,0,0-.231-.109c-.024,0-.038.027-.046.046a.311.311,0,0,0,0,.217c.009.018.024.046.049.044" transform="translate(-1242.459 -230.164)" fill="#232323"/>
                    <path id="Path_163" data-name="Path 163" d="M1280.238,193.4c.092,0,.088-.307-.008-.307s-.089.307.008.307" transform="translate(-1277.637 -181.145)" fill="#232323"/>
                    <path id="Path_164" data-name="Path 164" d="M1291.208,208.217a.253.253,0,0,0,.228-.116.439.439,0,0,0,.064-.194.55.55,0,0,0-.021-.225.155.155,0,0,0-.026-.054.043.043,0,0,0-.035-.02l-.151.042c-.052.014-.1.027-.155.045a.193.193,0,0,0-.1.2.269.269,0,0,0,.046.161c.014.018.04.039.065.031a.033.033,0,0,0,.026-.014.069.069,0,0,0,.021-.032.262.262,0,0,0,.017-.109.255.255,0,0,0-.022-.108c-.008-.015-.027-.05-.049-.044a.026.026,0,0,1-.014,0l.018.005a.032.032,0,0,1-.012-.007l.016.015-.007-.009.014.024,0,0a.159.159,0,0,1,.011.038.14.14,0,0,1,0,.08q-.02.1,0,.062l-.013.024a.073.073,0,0,1,.011-.015l-.016.016a.121.121,0,0,1,.041-.022l-.018.006c.094-.031.192-.054.288-.081l-.059-.075.006.021c0,.014,0,.007,0-.021,0,0,0,.007,0,.011s0,.007,0-.025a.081.081,0,0,1,0,.011c0,.032,0-.03,0-.016s-.008.034,0-.013c0,.007,0,.014,0,.021s0,.007.005-.016l0,.01c0,.007-.006.013-.009.02l.013-.024a.243.243,0,0,1-.037.051l.016-.016a.225.225,0,0,1-.082.052l.018-.006a.206.206,0,0,1-.086.01c-.022,0-.04.031-.046.046a.26.26,0,0,0-.017.109.254.254,0,0,0,.022.108c.01.02.023.041.048.044" transform="translate(-1287.814 -194.766)" fill="#232323"/>
                </g>
            </g>
            <path id="Path_176" data-name="Path 176" d="M44.714,56.576,0,30.289V85.137a.728.728,0,0,0,.727.727H88.416a.728.728,0,0,0,.727-.727V30.289L47.028,56.546a2.234,2.234,0,0,1-2.314.03" transform="translate(0 3.505)" fill="#ffc92b"/>
            <rect id="Rectangle_76" data-name="Rectangle 76" width="89.143" height="89.37" transform="translate(0 0)" fill="none"/>
        </g>
        <line id="Line_72" data-name="Line 72" x1="51.485" y2="33.216" transform="translate(121.682 162.303)" fill="none" stroke="#fcfcfc" stroke-width="1"/>
        <line id="Line_73" data-name="Line 73" x2="51.485" y2="33.216" transform="translate(171.144 162.303)" fill="none" stroke="#fcfcfc" stroke-width="1"/>
    </g>
</svg>
