<svg id="Icon_ionic-md-contacts" data-name="Icon ionic-md-contacts" xmlns="http://www.w3.org/2000/svg" width="25.668" height="22" viewBox="0 0 25.668 22">
    <g id="Group_25" data-name="Group 25" transform="translate(0 3.209)">
        <path id="Path_39" data-name="Path 39" d="M14.122,24.183a7.006,7.006,0,0,1-6.9,0c-2.7.824-4.358,3.556-4.968,5.962H19.09C18.48,27.739,16.825,25.007,14.122,24.183Z" transform="translate(-2.25 -11.355)" fill="#fff"/>
        <path id="Path_40" data-name="Path 40" d="M11.2,8.44a6.065,6.065,0,1,0,6.067,6.065A6.066,6.066,0,0,0,11.2,8.44Zm0,10.685a4.687,4.687,0,0,1-4.24-2.895h8.479A4.687,4.687,0,0,1,11.2,19.125Z" transform="translate(-2.785 -8.44)" fill="#fff"/>
    </g>
    <g id="Group_26" data-name="Group 26" transform="translate(12.135)">
        <path id="Path_41" data-name="Path 41" d="M21.906,25.749h9.018a7.5,7.5,0,0,0-4.968-5.5,7.011,7.011,0,0,1-5.868.48,8.039,8.039,0,0,1-1.6,2A7.78,7.78,0,0,1,21.906,25.749Z" transform="translate(-17.391 -7.416)" fill="#fff"/>
        <path id="Path_42" data-name="Path 42" d="M20.737,12.292h5.758a4.676,4.676,0,0,1-4.24,2.882,4.357,4.357,0,0,1-1.454-.258,7.358,7.358,0,0,1-.374,1.439,6.069,6.069,0,1,0-3.286-9.04A7.5,7.5,0,0,1,20.737,12.292Z" transform="translate(-17.142 -4.502)" fill="#fff"/>
    </g>
</svg>
