<svg xmlns="http://www.w3.org/2000/svg" width="18.252" height="16" viewBox="0 0 18.252 16">
    <path id="Icon_map-food" data-name="Icon map-food" d="M18.932,7.1l-1.5,11.729H12.382L10.891,7.037h6.17l1.219-4.212.691.208L17.8,7.086l1.13.009Zm-8.755,6.786s.189-1.521-2.432-1.521H3.572c-2.617,0-2.432,1.521-2.432,1.521h9.037ZM1.14,17.3s-.185,1.521,2.432,1.521H7.746c2.621,0,2.432-1.521,2.432-1.521Zm8.645-.761a.875.875,0,0,0,.775-.95.873.873,0,0,0-.775-.951H1.5a.875.875,0,0,0-.776.951.876.876,0,0,0,.776.95H9.785Z" transform="translate(-0.72 -2.825)" fill="#ffc92b"/>
</svg>
