<svg xmlns="http://www.w3.org/2000/svg" width="26.101" height="26.101" viewBox="0 0 26.101 26.101">
    <path id="Icon_awesome-facebook-square" data-name="Icon awesome-facebook-square" d="M23.3,2.25H2.8A2.8,2.8,0,0,0,0,5.047V25.555a2.8,2.8,0,0,0,2.8,2.8h8V19.478H7.123V15.3h3.671V12.117C10.793,8.5,12.949,6.5,16.25,6.5a22.237,22.237,0,0,1,3.235.282v3.554H17.663a2.089,2.089,0,0,0-2.355,2.256V15.3h4.007l-.641,4.177H15.308v8.874h8a2.8,2.8,0,0,0,2.8-2.8V5.047a2.8,2.8,0,0,0-2.8-2.8Z" transform="translate(0 -2.25)" fill="#ffc92b"/>
</svg>
