<svg xmlns="http://www.w3.org/2000/svg" width="27.675" height="17.23" viewBox="0 0 27.675 17.23"><path d="M27.4,8.671,25.408,7.318a.631.631,0,0,1-.2-.229l-2.24-4.282a.628.628,0,0,0-.557-.337H18.979L17.837.4a.767.767,0,0,0-.672-.4H.768A.768.768,0,0,0,0,.768v13a.768.768,0,0,0,.768.768H2.614a2.85,2.85,0,0,0,5.692,0H18.745a2.85,2.85,0,0,0,5.692,0h2.609a.629.629,0,0,0,.629-.629V9.191a.629.629,0,0,0-.275-.52M14.564,5.253h-1.2l-.579-3.011H14.51l.054.191.8,2.82ZM2.71,2.242H4.434L3.855,5.253h-2l.8-2.82Zm1.956,0h1.8L6.175,5.253H4.087Zm2.03,0h1.8V5.253H6.406Zm2.03,0h1.8l.289,3.011H8.726Zm2.03,0h1.8l.579,3.011H11.045ZM5.46,15.8a1.423,1.423,0,0,1-1.413-1.269h.318a1.106,1.106,0,0,0,2.191,0h.318A1.423,1.423,0,0,1,5.46,15.8M14.437,9.24H2.783a.127.127,0,0,1-.127-.127V5.484H14.564V9.113a.127.127,0,0,1-.127.127M21.591,15.8a1.423,1.423,0,0,1-1.413-1.269H20.5a1.106,1.106,0,0,0,2.191,0H23A1.423,1.423,0,0,1,21.591,15.8m2.875-8.224H18.721a.047.047,0,0,1-.047-.047V3.31a.047.047,0,0,1,.047-.047H21.91a.583.583,0,0,1,.541.378L24.5,7.516a.042.042,0,0,1-.037.061m2.7,3.248a.05.05,0,0,1-.05.05h-.963a.05.05,0,0,1-.048-.037L25.671,9.2a.05.05,0,0,1,.049-.062h1.395a.05.05,0,0,1,.05.05Z" fill="#fcfcfc"/></svg>