<svg xmlns="http://www.w3.org/2000/svg" xmlns:xlink="http://www.w3.org/1999/xlink" width="118.982" height="89.186" viewBox="0 0 118.982 89.186">
    <defs>
        <clipPath id="clip-path">
            <rect id="Rectangle_112" data-name="Rectangle 112" width="118.982" height="89.186" fill="none"/>
        </clipPath>
        <clipPath id="clip-path-2">
            <rect id="Rectangle_113" data-name="Rectangle 113" width="115.179" height="71.8" fill="none"/>
        </clipPath>
    </defs>
    <g id="Group_281" data-name="Group 281" transform="translate(0 0)">
        <g id="Group_278" data-name="Group 278" transform="translate(0 0)">
            <g id="Group_277" data-name="Group 277" clip-path="url(#clip-path)">
                <path id="Path_238" data-name="Path 238" d="M19.151,34.36a9.38,9.38,0,1,1-9.38-9.38,9.379,9.379,0,0,1,9.38,9.38" transform="translate(0.713 45.445)" fill="#ffc92b"/>
                <path id="Path_239" data-name="Path 239" d="M11.945,63.937H9.022a4.8,4.8,0,0,1-4.781-4.423L.015,5.168A4.794,4.794,0,0,1,4.8,0H16.171a4.794,4.794,0,0,1,4.781,5.168L16.727,59.514a4.8,4.8,0,0,1-4.781,4.423" transform="translate(0 0.001)" fill="#ffc92b"/>
            </g>
        </g>
        <g id="Group_280" data-name="Group 280" transform="translate(3.786 17.386)">
            <g id="Group_279" data-name="Group 279" clip-path="url(#clip-path-2)">
                <path id="Path_240" data-name="Path 240" d="M13.872,29.424h-.429a.19.19,0,0,0-.195.189v0a.3.3,0,0,0,0,.07.216.216,0,0,0,.18.214l.282.051a3.517,3.517,0,0,0,.516.054h.234v-.564h-.6m0,0h-.414a.19.19,0,0,0-.195.189v0a.3.3,0,0,0,0,.07.216.216,0,0,0,.18.214l.282.051a3.518,3.518,0,0,0,.516.054h.234v-.564h-.6M110.91,42.334l-8-5.638a2.6,2.6,0,0,1-.82-.953L93.109,17.869a2.516,2.516,0,0,0-2.238-1.41H77.1L72.783,7.824a3.062,3.062,0,0,0-2.7-1.658H6.895a3.144,3.144,0,0,0-3.081,3.2V20.42c.44.228.846.462,1.238.7s.8.519,1.15.784a12.022,12.022,0,0,1,4.77,9.791,7.358,7.358,0,0,1,1.728.961,3.1,3.1,0,0,1,1.012,3.583,5.2,5.2,0,0,1-1.942,3.287c-.172.127-1.15.175-1.018.352a3.736,3.736,0,0,1-.778,5.768c-.031-.014-.392.189-1.153.474-.028.011-.056.025-.085.039a2.261,2.261,0,0,0-1.207,1.849c-.045.7-1.049.383-1.286,1.018a1.691,1.691,0,0,1-.9,1.094c-.209.076-.4.149-.564.226a3.618,3.618,0,0,0-.953.564v12.6a3.144,3.144,0,0,0,3.081,3.2h7.415a11.432,11.432,0,0,0,22.861,0h38.99a11.432,11.432,0,0,0,22.861,0h10.479a2.575,2.575,0,0,0,2.537-2.611V44.465a2.645,2.645,0,0,0-1.105-2.168M54.252,15.515,56.575,28.06h-8.4L47.012,15.515Zm-15.376,0H46.1L47.26,28.06h-8.4Zm-.93,0V28.06h-8.4L30.7,15.515Zm-8.153,0L28.631,28.06h-8.4l2.326-12.545Zm-4.051,56.5a5.8,5.8,0,0,1-5.675-5.289h2.721a2.834,2.834,0,0,0,2.957,2.644,2.9,2.9,0,0,0,3.019-2.644h2.659a5.8,5.8,0,0,1-5.675,5.289M62.312,44.138a.52.52,0,0,1-.51.53H18.851a5.583,5.583,0,0,1-2.439.826,2.24,2.24,0,0,0-.431.082c-.347-.169-.7-.358-1.088-.564,0,0-3.315-.928-1.909-.124.369.209,1.875.956,2.588,1.243a2.564,2.564,0,0,0,.113.564c.169.578.335,1.159.493,1.745a19.712,19.712,0,0,1,.564,3.025c.175,1.807-1.446,1.88-3.2,2.227A9.687,9.687,0,0,1,11.019,52a4.533,4.533,0,0,0-.674-.507c-.538-.313-.809-.192-.764.133A2.464,2.464,0,0,0,10.729,53a13.266,13.266,0,0,0,2.083,1.128.552.552,0,0,0-.059.161c-.217,1.973-2.819,1.658-4.415.327,0,0-.355-.195-.846-.5A8.355,8.355,0,0,1,4.758,51.82a.475.475,0,0,1,.172-.651l.042-.023c1.779-1,3.431-1.291,3.2-3-.023-.674.116-.643.282-.863.75-.913,1.2-.727,1.556-1.012l.017-.014c.1-.054.189-.1.282-.158a6.758,6.758,0,0,0,1.773-1.551,4.565,4.565,0,0,0,1.052-2.436,2.962,2.962,0,0,0-.248-1.48,1.239,1.239,0,0,1,.158-1.083,8.418,8.418,0,0,0,1.41-2.673V33.307a3.529,3.529,0,0,0-1.319-1.768,2.483,2.483,0,0,0-1.243-.42,7.65,7.65,0,0,0-.2-3.076h-.426l.211-.767a14,14,0,0,0-2.385-4.367q-.524-.668-1.178-1.362Q7.192,20.786,6.291,20l-.324-.282c1.074-.507,1.006-1,2.061-1.362a.566.566,0,0,1,.135-.037c1.362-.262,3.149,2.354,3.84,3.772-.242-.017-.5.113-.758.1l-.584-.025a1.749,1.749,0,0,1-.364-.037l-.2.025-.133.073a.545.545,0,0,0-.195.206.174.174,0,0,0,.059.237.2.2,0,0,0,.079.023c.352.017,1.587-.025,1.832,0s.516.059.789.1c.045.039.093-.195.141-.161l.265-.682,1.542-5.638.217-.8H21.62L19.294,28.066h-2.52a4.934,4.934,0,0,1-.195.86.321.321,0,0,1-.034.1H62.309ZM57.491,28.054,55.168,15.509h6.927l.217.8,3.211,11.75Zm30.1,43.957a5.8,5.8,0,0,1-5.675-5.289h2.721a2.834,2.834,0,0,0,2.957,2.644,2.9,2.9,0,0,0,3.019-2.644H93.27a5.8,5.8,0,0,1-5.681,5.289m11.559-34.27H76.067a.19.19,0,0,1-.189-.195V19.96a.19.19,0,0,1,.189-.195H88.875a2.344,2.344,0,0,1,2.174,1.579l8.241,16.143a.172.172,0,0,1-.07.234.169.169,0,0,1-.076.02m10.837,13.532a.2.2,0,0,1-.2.209h-3.865a.2.2,0,0,1-.195-.155l-1.739-6.82a.2.2,0,0,1,.144-.251l.051-.008h5.6a.2.2,0,0,1,.2.206v6.82ZM13.444,29.422a.19.19,0,0,0-.195.189v0a.3.3,0,0,0,0,.07.216.216,0,0,0,.18.214l.282.051a3.518,3.518,0,0,0,.516.054h.234v-.564H13.444m.417,0h-.417a.19.19,0,0,0-.195.189v0a.3.3,0,0,0,0,.07.216.216,0,0,0,.18.214l.282.051a3.518,3.518,0,0,0,.516.054h.234v-.564h-.6m0,0h-.414a.19.19,0,0,0-.195.189v0a.3.3,0,0,0,0,.07.216.216,0,0,0,.18.214l.282.051a3.519,3.519,0,0,0,.516.054h.234v-.564h-.6" transform="translate(3.15 -6.167)" fill="#232323"/>
                <path id="Path_241" data-name="Path 241" d="M14.152,22.01h-.417a.19.19,0,0,0-.195.189v0a.3.3,0,0,0,0,.07.216.216,0,0,0,.18.214l.282.051a3.517,3.517,0,0,0,.516.054h.237v-.578h-.6m0,0h-.417a.19.19,0,0,0-.195.189v0a.3.3,0,0,0,0,.07.216.216,0,0,0,.18.214L14,22.54a3.518,3.518,0,0,0,.516.054h.237v-.578h-.6m8.294,12.309a8.078,8.078,0,0,0-.846-2.6,2.707,2.707,0,0,1-.22-2.4,6.616,6.616,0,0,0-2.32-7.372,2.743,2.743,0,0,1-.3-.3l-.031-.039a3.277,3.277,0,0,1-.55-.964c-.028-.082-.056-.164-.076-.242-.282-1.074-.378-2.185-.6-3.276a2.776,2.776,0,0,0-2.4-2.286c-.564-.113-1.156-.189-1.892-.3h-.056A5.818,5.818,0,0,0,9.049,10.4a8.663,8.663,0,0,0-4.877.479c0,.358.1.733-.079,1.015v1.128c.44.228.846.462,1.238.7s.8.519,1.15.784a12.022,12.022,0,0,1,4.77,9.791,7.4,7.4,0,0,1,1.725.961,3.1,3.1,0,0,1,1.012,3.583,5.189,5.189,0,0,1-1.942,3.29c-.175.127-1.15.175-1.021.352a3.736,3.736,0,0,1-.778,5.768c-.031-.014-.392.189-1.15.474a.569.569,0,0,0-.085.039,2.261,2.261,0,0,0-1.207,1.849c-.045.7-1.052.383-1.286,1.015a1.7,1.7,0,0,1-.9,1.094c-.209.076-.4.149-.564.226a3.7,3.7,0,0,0-.953.564,1.143,1.143,0,0,0-.448.8A1.451,1.451,0,0,0,4.1,45.325c.059.068.121.132.189.2a16.121,16.121,0,0,0,3.028,2.016,5.293,5.293,0,0,1,.725.468c1.379,1.2,3.775,2.134,5.128.75.242-.248.448-.527.846-1a3,3,0,0,0,.282-.369,5.275,5.275,0,0,0,.344-.5l.189-.076c1.424-.606,2.969-.772,2.983-2.346a20.915,20.915,0,0,0-.338-3.191,10.2,10.2,0,0,0-.248-1.083c-.037-.124-.068-.242-.093-.344.166-.054.33-.1.485-.141s.335-.079.491-.127a2.474,2.474,0,0,0,.679-.282l.037-.025c.894-.595,1.692-1.311,2.537-1.973l.073-.059a2.871,2.871,0,0,0,1.009-2.938m-5.757,3.772a2.24,2.24,0,0,0-.431.082c-.344-.169-.7-.355-1.085-.564,0,0-3.315-.928-1.911-.124.369.209,1.875.956,2.591,1.243a2.564,2.564,0,0,0,.113.564c.169.578.335,1.159.491,1.745a19.377,19.377,0,0,1,.564,3.025c.175,1.807-1.446,1.88-3.2,2.227A9.687,9.687,0,0,1,11.3,44.59a4.347,4.347,0,0,0-.674-.507c-.538-.313-.809-.192-.764.135a2.465,2.465,0,0,0,1.147,1.373,13.267,13.267,0,0,0,2.083,1.128.481.481,0,0,0-.059.161c-.217,1.973-2.819,1.658-4.418.327,0,0-.352-.195-.846-.5a8.39,8.39,0,0,1-2.735-2.295.473.473,0,0,1,.166-.648l.048-.025c1.776-1,3.431-1.291,3.2-3-.023-.677.116-.64.282-.863.747-.913,1.2-.727,1.556-1.012H10.3c.1-.054.192-.1.282-.158a6.758,6.758,0,0,0,1.773-1.551,4.565,4.565,0,0,0,1.052-2.436,2.967,2.967,0,0,0-.248-1.48,1.234,1.234,0,0,1,.155-1.08,8.447,8.447,0,0,0,1.41-2.673A6.467,6.467,0,0,0,14.972,27a4.244,4.244,0,0,0-.248-1.105,3.54,3.54,0,0,0-1.345-1.756,2.511,2.511,0,0,0-1.243-.42,7.551,7.551,0,0,0-.2-3.076c-.059-.245-.13-.5-.217-.77a14,14,0,0,0-2.385-4.367c-.347-.443-.741-.9-1.178-1.364-.482-.507-1.021-1.023-1.624-1.545l-.324-.282c1.074-.507,1-1,2.061-1.364a.737.737,0,0,1,.135-.037c1.364-.262,3.146,2.354,3.84,3.772-.245-.017-.5.113-.758.1l-.584-.025h-.2l-.335-.02a1.476,1.476,0,0,1-.161.09c-.144.082-.13.462-.054.465.352.014,1.587-.025,1.832,0a24.382,24.382,0,0,1,2.478.31,4.385,4.385,0,0,1,2.56,5.038,4.941,4.941,0,0,1-.2.86l-.034.1c-.028.09-.062.042-.1.135-.663,0-1.322.282-1.973.282H13.7a.19.19,0,0,0-.195.189v0a.3.3,0,0,0,0,.07.216.216,0,0,0,.18.214l.282.051a3.518,3.518,0,0,0,.516.054h.237c.978,0,1.954-.164,2.932-.155h.1a1.2,1.2,0,0,1,.547.254,5.132,5.132,0,0,1,2.4,5.52,4.515,4.515,0,0,1-1.052,1.959,5.539,5.539,0,0,0-.474.671c-2.715-.392-3.665-.183-3.986.775,1.41-.023,2.839-.11,4.277-.039a1.986,1.986,0,0,1,1.274.744c.037.056.076.113.107.169a2.671,2.671,0,0,1-.056,3.031,5.729,5.729,0,0,1-1.57,1.641l-.135.087a5.624,5.624,0,0,1-2.439.829m-2.537-16.07h-.417a.19.19,0,0,0-.195.189v0a.3.3,0,0,0,0,.07.216.216,0,0,0,.18.214l.282.051a3.518,3.518,0,0,0,.516.054h.237v-.578h-.561m0,0h-.417a.19.19,0,0,0-.195.189v0a.3.3,0,0,0,0,.07.216.216,0,0,0,.18.214l.282.051a3.518,3.518,0,0,0,.516.054h.237V22.03h-.6" transform="translate(2.859 1.247)" fill="#232323"/>
                <path id="Path_242" data-name="Path 242" d="M6.432,14.527C3.613,11.759,4,17.8,6.754,15.61" transform="translate(4.391 7.695)" fill="#232323"/>
                <path id="Path_243" data-name="Path 243" d="M6.009,19.992c.282-.9-1.652-2.515-2.653-1.4-.507.778.2,1.663-.7,3.039-.7,2.365,2.991,2.664,3.383.606" transform="translate(0.89 15.754)" fill="#232323"/>
                <path id="Path_244" data-name="Path 244" d="M3.267,18.823C1.66,19.6,1.4,17.365,2.776,16.531c.787-.3,1.489.522,1.006,1.41" transform="translate(-0.354 12.573)" fill="#232323"/>
                <path id="Path_245" data-name="Path 245" d="M5.889,15.636c.753.147,1.128.671.942,1.17-1.548.564-2.805-.733-.781-1.226" transform="translate(5.309 10.959)" fill="#232323"/>
                <path id="Path_246" data-name="Path 246" d="M5.3,17.211c-.347.513-.894,1.128-.71,1.818.073.753.646,1.847,1.364,1.452.911-.462,1.565-4.136.048-3.011" transform="translate(4.502 13.926)" fill="#232323"/>
                <path id="Path_247" data-name="Path 247" d="M4.02,14.771a.476.476,0,0,0-.434.211.588.588,0,0,0-.059.5l.612-.178a.233.233,0,0,0,.161-.1c.031-.059-.02-.152-.082-.13" transform="translate(2.574 9.484)" fill="#232323"/>
                <path id="Path_248" data-name="Path 248" d="M1.835,18.957a.331.331,0,0,0-.4.178,1.039,1.039,0,0,0-.09.479.351.351,0,0,0,.025.178.275.275,0,0,0,.2.124,1.362,1.362,0,0,0,.877-.093.215.215,0,0,0,.118-.1c.042-.116-.1-.209-.22-.24a2.788,2.788,0,0,0-.942-.076" transform="translate(-1.345 17.074)" fill="#232323"/>
                <path id="Path_249" data-name="Path 249" d="M1.508,18.926a.484.484,0,0,1,.434.195A.519.519,0,0,1,2,19.608" transform="translate(-1.043 17.041)" fill="#232323"/>
                <path id="Path_250" data-name="Path 250" d="M4.2,17.691a.476.476,0,0,0,.434-.211.588.588,0,0,0,.059-.5l-.612.178a.233.233,0,0,0-.161.1c-.031.059.02.152.082.13" transform="translate(3.321 13.507)" fill="#232323"/>
            </g>
        </g>
    </g>
</svg>
