<svg xmlns="http://www.w3.org/2000/svg" xmlns:xlink="http://www.w3.org/1999/xlink" width="56" height="56" viewBox="0 0 56 56">
    <defs>
        <clipPath id="clip-path">
            <rect id="Rectangle_69" data-name="Rectangle 69" width="40.855" height="25.468" fill="none"/>
        </clipPath>
    </defs>
    <g id="Group_100" data-name="Group 100" transform="translate(-290 -18)">
        <rect id="Rectangle_58" data-name="Rectangle 58" width="56" height="56" rx="28" transform="translate(290 18)" fill="#232323"/>
        <g id="Group_182" data-name="Group 182" transform="translate(297.626 32.531)">
            <g id="Group_184" data-name="Group 184" clip-path="url(#clip-path)">
                <path id="Path_136" data-name="Path 136" d="M51.552,8.25H51.4a.068.068,0,0,0-.069.068.1.1,0,0,0,0,.025.076.076,0,0,0,.064.076l.1.018a1.183,1.183,0,0,0,.183.019h.083v-.2h-.214m0,0H51.4a.068.068,0,0,0-.069.068.1.1,0,0,0,0,.025.076.076,0,0,0,.064.076l.1.018a1.183,1.183,0,0,0,.183.019h.083v-.2h-.214m34.425,4.567-2.837-2a.924.924,0,0,1-.291-.338L79.658,4.151a.892.892,0,0,0-.794-.5H73.981L72.448.588A1.087,1.087,0,0,0,71.49,0H49.077a1.115,1.115,0,0,0-1.093,1.136v3.92c.156.081.3.164.439.249s.282.184.408.278a4.264,4.264,0,0,1,1.692,3.473,2.609,2.609,0,0,1,.613.341,1.1,1.1,0,0,1,.359,1.271,1.844,1.844,0,0,1-.689,1.166c-.061.045-.408.062-.361.125a1.323,1.323,0,0,1-.276,2.046c-.011-.005-.139.067-.409.168a.2.2,0,0,0-.03.014.8.8,0,0,0-.428.656c-.016.249-.372.136-.456.361a.6.6,0,0,1-.321.388c-.074.027-.141.053-.2.08a1.289,1.289,0,0,0-.338.2v4.47a1.115,1.115,0,0,0,1.093,1.135h2.63a4.055,4.055,0,0,0,8.109,0h13.83a4.055,4.055,0,0,0,8.109,0h3.717a.913.913,0,0,0,.9-.93V13.585a.939.939,0,0,0-.392-.769m-20.108-9.5.824,4.45H63.719l-.412-4.45Zm-5.454,0h2.562l.412,4.45H60.415Zm-.33,0v4.45H57.11l.412-4.45Zm-2.892,0-.412,4.45H53.806l.825-4.45ZM55.762,23.356a2.057,2.057,0,0,1-2.013-1.876h.965a1.006,1.006,0,0,0,1.049.938,1.031,1.031,0,0,0,1.071-.938h.943a2.057,2.057,0,0,1-2.013,1.876m12.97-9.887a.185.185,0,0,1-.181.188H53.318a1.983,1.983,0,0,1-.865.293.809.809,0,0,0-.153.029c-.123-.06-.25-.127-.386-.2,0,0-1.176-.329-.677-.044.131.074.665.339.918.441a.937.937,0,0,0,.04.2c.06.205.119.411.175.619a6.975,6.975,0,0,1,.2,1.073c.062.641-.513.667-1.136.79a3.44,3.44,0,0,1-.894-.6,1.57,1.57,0,0,0-.239-.18c-.191-.111-.287-.068-.271.047a.873.873,0,0,0,.407.487,4.761,4.761,0,0,0,.739.4.17.17,0,0,0-.021.057c-.077.7-1,.588-1.566.116,0,0-.126-.069-.3-.177a2.967,2.967,0,0,1-.97-.814.169.169,0,0,1,.076-.239c.631-.354,1.217-.458,1.135-1.063-.008-.239.041-.228.1-.306.266-.324.425-.258.552-.359,0,0,0,0,.006-.005.034-.019.067-.036.1-.056a2.409,2.409,0,0,0,.629-.55v0a1.621,1.621,0,0,0,.373-.864,1.046,1.046,0,0,0-.088-.525.441.441,0,0,1,.056-.384,2.992,2.992,0,0,0,.5-.948V9.627A1.255,1.255,0,0,0,51.29,9a.886.886,0,0,0-.441-.149,2.7,2.7,0,0,0-.07-1.091h-.151l.075-.272a4.969,4.969,0,0,0-.846-1.549c-.124-.158-.263-.319-.418-.483q-.256-.27-.576-.548l-.115-.1c.381-.18.357-.353.731-.483a.219.219,0,0,1,.048-.013c.483-.093,1.117.835,1.362,1.338-.086-.006-.178.04-.269.037l-.207-.009a.632.632,0,0,1-.129-.013l-.071.009-.047.026a.2.2,0,0,0-.069.073.061.061,0,0,0,.049.092h0c.125.006.563-.009.65,0s.183.021.28.034c.016.014.033-.069.05-.057L51.22,5.6l.547-2,.077-.282H54.3l-.825,4.45h-.894a1.725,1.725,0,0,1-.069.305c0,.012-.007.024-.012.037H68.733Zm-1.71-5.705L66.2,3.314h2.457l.077.282,1.139,4.168ZM77.7,23.356a2.057,2.057,0,0,1-2.013-1.876h.965a1.006,1.006,0,0,0,1.049.938,1.031,1.031,0,0,0,1.071-.938h.943A2.057,2.057,0,0,1,77.7,23.356M81.8,11.2H73.613a.068.068,0,0,1-.067-.069V4.893a.068.068,0,0,1,.067-.069h4.543a.831.831,0,0,1,.771.56L81.85,11.11a.061.061,0,0,1-.052.09M85.642,16a.073.073,0,0,1-.071.074H84.2a.072.072,0,0,1-.069-.055L83.514,13.6a.073.073,0,0,1,.069-.092h1.988a.072.072,0,0,1,.071.074ZM51.4,8.249a.068.068,0,0,0-.069.068.1.1,0,0,0,0,.025.076.076,0,0,0,.064.076l.1.018a1.183,1.183,0,0,0,.183.019h.083v-.2H51.4m.148,0H51.4a.068.068,0,0,0-.069.068.1.1,0,0,0,0,.025.076.076,0,0,0,.064.076l.1.018a1.183,1.183,0,0,0,.183.019h.083v-.2h-.214m0,0H51.4a.068.068,0,0,0-.069.068.1.1,0,0,0,0,.025.076.076,0,0,0,.064.076l.1.018a1.183,1.183,0,0,0,.183.019h.083v-.2h-.214" transform="translate(-45.514 0)" fill="#ffc92b"/>
                <path id="Path_137" data-name="Path 137" d="M48.6,83.164h-.148a.068.068,0,0,0-.069.068.113.113,0,0,0,0,.025.076.076,0,0,0,.064.076l.1.018a1.179,1.179,0,0,0,.183.019h.084v-.205H48.6m0,0h-.148a.068.068,0,0,0-.069.068.113.113,0,0,0,0,.025.076.076,0,0,0,.064.076l.1.018a1.179,1.179,0,0,0,.183.019h.084v-.205H48.6m2.942,4.366a2.871,2.871,0,0,0-.3-.923.962.962,0,0,1-.078-.852,2.347,2.347,0,0,0-.823-2.615.951.951,0,0,1-.107-.106l-.011-.014a1.186,1.186,0,0,1-.195-.342c-.01-.029-.02-.058-.027-.086-.1-.381-.134-.775-.212-1.162a.985.985,0,0,0-.85-.811c-.2-.04-.41-.067-.671-.107l-.02,0a2.063,2.063,0,0,0-1.458-1.47,3.074,3.074,0,0,0-1.73.17c0,.127.036.26-.028.36v.4c.156.081.3.164.439.249s.282.184.408.278a4.266,4.266,0,0,1,1.692,3.473,2.618,2.618,0,0,1,.612.341,1.1,1.1,0,0,1,.359,1.271,1.842,1.842,0,0,1-.689,1.167c-.062.045-.408.062-.362.125a1.323,1.323,0,0,1-.276,2.046c-.011-.005-.139.067-.408.168a.187.187,0,0,0-.03.014.8.8,0,0,0-.428.656c-.016.249-.373.136-.456.36a.6.6,0,0,1-.32.388c-.074.027-.142.053-.2.08a1.316,1.316,0,0,0-.338.2.405.405,0,0,0-.159.283.517.517,0,0,0,.159.361c.021.024.043.047.067.071a5.738,5.738,0,0,0,1.074.715,1.9,1.9,0,0,1,.257.166c.489.426,1.339.757,1.819.266.086-.088.159-.187.3-.353.041-.047.075-.091.1-.131.077-.1.122-.177.122-.177l.067-.027c.505-.215,1.053-.274,1.058-.832A7.492,7.492,0,0,0,49.779,90a3.615,3.615,0,0,0-.088-.384c-.013-.044-.024-.086-.033-.122.059-.019.117-.035.172-.05s.119-.028.174-.045a.858.858,0,0,0,.241-.1.041.041,0,0,0,.013-.009c.317-.211.6-.465.9-.7l.026-.021a1.017,1.017,0,0,0,.358-1.042M49.5,88.865a.8.8,0,0,0-.153.029c-.122-.06-.25-.126-.385-.2,0,0-1.176-.329-.678-.044.131.074.665.339.919.441a.924.924,0,0,0,.04.2c.06.205.119.411.174.619a6.96,6.96,0,0,1,.2,1.073c.062.641-.513.667-1.136.79a3.444,3.444,0,0,1-.894-.6,1.537,1.537,0,0,0-.239-.18c-.191-.111-.287-.068-.271.048a.875.875,0,0,0,.407.487,4.736,4.736,0,0,0,.739.4.167.167,0,0,0-.021.057c-.077.7-1,.588-1.567.116,0,0-.125-.069-.3-.176a2.974,2.974,0,0,1-.97-.814.168.168,0,0,1,.076-.239c.63-.354,1.217-.458,1.135-1.063-.008-.24.041-.227.1-.306.265-.324.425-.258.552-.359,0,0,0,0,.006,0,.034-.019.068-.035.1-.056a2.409,2.409,0,0,0,.629-.55h0a1.622,1.622,0,0,0,.373-.864,1.051,1.051,0,0,0-.088-.525.44.44,0,0,1,.055-.383,3,3,0,0,0,.5-.948,2.292,2.292,0,0,0,.088-.883,1.523,1.523,0,0,0-.088-.392,1.256,1.256,0,0,0-.477-.623.887.887,0,0,0-.441-.149,2.693,2.693,0,0,0-.07-1.091c-.021-.087-.046-.178-.077-.273a4.955,4.955,0,0,0-.846-1.549q-.185-.236-.418-.484c-.171-.18-.362-.363-.576-.548l-.115-.1c.381-.18.356-.353.731-.484a.238.238,0,0,1,.048-.013c.484-.093,1.116.835,1.362,1.338-.087-.006-.178.04-.269.036l-.207-.009-.071,0-.119-.007a.649.649,0,0,1-.057.032c-.051.029-.046.164-.019.165.125.005.563-.009.65,0a8.6,8.6,0,0,1,.879.11,1.555,1.555,0,0,1,.908,1.787,1.754,1.754,0,0,1-.07.305l-.012.036c-.01.032-.022.015-.034.048-.235,0-.469.1-.7.1h-.362a.068.068,0,0,0-.069.068.113.113,0,0,0,0,.025.076.076,0,0,0,.064.076l.1.018a1.179,1.179,0,0,0,.183.019h.084c.347,0,.693-.058,1.04-.055h.034a.427.427,0,0,1,.194.09l0,0a1.819,1.819,0,0,1,.852,1.958,1.6,1.6,0,0,1-.373.695,1.907,1.907,0,0,0-.168.238c-.963-.139-1.3-.065-1.414.275.5-.008,1.007-.039,1.517-.014a.705.705,0,0,1,.452.264c.013.02.027.04.038.06a.948.948,0,0,1-.02,1.075,2.017,2.017,0,0,1-.557.582l-.048.031a1.989,1.989,0,0,1-.865.294m-.9-5.7h-.148a.068.068,0,0,0-.069.068.113.113,0,0,0,0,.025.076.076,0,0,0,.064.076l.1.018a1.179,1.179,0,0,0,.183.019h.084v-.205H48.6m0,0h-.148a.068.068,0,0,0-.069.068.113.113,0,0,0,0,.025.076.076,0,0,0,.064.076l.1.018a1.179,1.179,0,0,0,.183.019h.084v-.205H48.6" transform="translate(-42.566 -74.914)" fill="#ffc92b"/>
                <path id="Path_138" data-name="Path 138" d="M61.882,148.295c-1-.982-.863,1.16.114.384" transform="translate(-58.043 -140.412)" fill="#ffc92b"/>
                <path id="Path_139" data-name="Path 139" d="M25.059,234.729c.1-.318-.586-.892-.941-.495-.18.276.072.59-.247,1.078-.25.839,1.061.945,1.2.215" transform="translate(-22.612 -222.049)" fill="#ffc92b"/>
                <path id="Path_140" data-name="Path 140" d="M11.041,200.957c-.57.274-.661-.517-.174-.813.279-.107.528.185.357.5" transform="translate(-10.008 -189.82)" fill="#ffc92b"/>
                <path id="Path_141" data-name="Path 141" d="M71.332,182.881c.267.052.4.238.334.415-.549.2-.995-.26-.277-.435" transform="translate(-67.36 -173.447)" fill="#ffc92b"/>
                <path id="Path_142" data-name="Path 142" d="M62.668,214.55c-.123.182-.317.4-.252.645.026.267.229.655.484.515.323-.164.555-1.467.017-1.068" transform="translate(-59.19 -203.505)" fill="#ffc92b"/>
                <path id="Path_143" data-name="Path 143" d="M42.009,167.118a.167.167,0,0,0-.154.075.207.207,0,0,0-.021.177l.217-.063a.085.085,0,0,0,.057-.035c.011-.021-.007-.054-.029-.046" transform="translate(-39.67 -158.514)" fill="#ffc92b"/>
                <path id="Path_144" data-name="Path 144" d="M.174,248.138a.118.118,0,0,0-.142.063.373.373,0,0,0-.032.17.124.124,0,0,0,.009.063.1.1,0,0,0,.072.044.479.479,0,0,0,.311-.033.074.074,0,0,0,.042-.037c.015-.041-.036-.074-.078-.085a.991.991,0,0,0-.334-.027" transform="translate(0 -235.357)" fill="#ffc92b"/>
                <path id="Path_145" data-name="Path 145" d="M3.206,247.82a.171.171,0,0,1,.154.069.186.186,0,0,1,.022.173" transform="translate(-3.041 -235.062)" fill="#ffc92b"/>
                <path id="Path_146" data-name="Path 146" d="M49.9,210.341a.167.167,0,0,0,.154-.075.207.207,0,0,0,.021-.177l-.217.063a.085.085,0,0,0-.057.035c-.011.021.007.054.029.046" transform="translate(-47.234 -199.274)" fill="#ffc92b"/>
            </g>
        </g>
    </g>
</svg>
