<svg xmlns="http://www.w3.org/2000/svg" width="34.996" height="27.634" viewBox="0 0 34.996 27.634">
    <g id="Group_224" data-name="Group 224" transform="translate(-8354 1945)">
        <path id="Path_190" data-name="Path 190" d="M109.622,49.012a2.379,2.379,0,1,0,2.123,2.123,2.381,2.381,0,0,0-2.123-2.123" transform="translate(8259.118 -1988.451)" fill="#232323"/>
        <path id="Path_191" data-name="Path 191" d="M17.421,149.385l-1.264-1.678-4.592-6.1a.221.221,0,0,0-.354,0L2.8,152.775a.221.221,0,0,0,.177.355H19.8a.221.221,0,0,0,.177-.355Z" transform="translate(8351.558 -2070.495)" fill="#232323"/>
        <path id="Path_192" data-name="Path 192" d="M25.772,8.874,16.527,21.721l-1.3-1.678,9.45-13.13a1.579,1.579,0,0,1,2.552,0L35,17.567V.548A.548.548,0,0,0,34.448,0H.548A.548.548,0,0,0,0,.548V24.422L8.016,13.784a1.155,1.155,0,0,1,1.857,0L14.93,20.5,16.2,22.174l4.114,5.46H34.448A.548.548,0,0,0,35,27.086V21.028L26.134,8.873a.224.224,0,0,0-.363,0m-10.82,3.22a4.191,4.191,0,1,1,3.711-3.711,4.2,4.2,0,0,1-3.711,3.711" transform="translate(8354 -1945)" fill="#232323"/>
    </g>
</svg>
