<svg id="Group_186" data-name="Group 186" xmlns="http://www.w3.org/2000/svg" xmlns:xlink="http://www.w3.org/1999/xlink" width="131.525" height="67.695" viewBox="0 0 131.525 67.695">
    <defs>
        <clipPath id="clip-path">
            <rect id="Rectangle_70" data-name="Rectangle 70" width="131.525" height="67.695" fill="none"/>
        </clipPath>
    </defs>
    <g id="Group_185" data-name="Group 185" clip-path="url(#clip-path)">
        <path id="Path_147" data-name="Path 147" d="M11.106,13.638c-3.067,0-4.891,1.494-4.9,3.529-.026,2.26,2.379,3.2,4.6,3.727l2.538.634c4.071.965,7.944,3.106,7.957,7.8-.013,4.772-3.78,8.01-10.27,8.01-6.3,0-10.31-3.027-10.508-8.407H5.343c.2,2.842,2.577,4.216,5.644,4.216,3.2,0,5.393-1.546,5.406-3.86-.013-2.1-1.943-3.014-4.864-3.754l-3.08-.793c-4.454-1.15-7.217-3.384-7.217-7.27-.013-4.785,4.256-7.984,9.94-7.984,5.763,0,9.662,3.238,9.755,7.812H16.208c-.251-2.3-2.181-3.661-5.1-3.661" transform="translate(-0.485 -8.883)" fill="#232323"/>
        <path id="Path_148" data-name="Path 148" d="M11.106,13.638c-3.067,0-4.891,1.494-4.9,3.529-.026,2.26,2.379,3.2,4.6,3.727l2.538.634c4.071.965,7.944,3.106,7.957,7.8-.013,4.772-3.78,8.01-10.27,8.01-6.3,0-10.31-3.027-10.508-8.407H5.343c.2,2.842,2.577,4.216,5.644,4.216,3.2,0,5.393-1.546,5.406-3.86-.013-2.1-1.943-3.014-4.864-3.754l-3.08-.793c-4.454-1.15-7.217-3.384-7.217-7.27-.013-4.785,4.256-7.984,9.94-7.984,5.763,0,9.662,3.238,9.755,7.812H16.208C15.957,15,14.027,13.638,11.106,13.638Z" transform="translate(-0.485 -8.883)" fill="none" stroke="#232323" stroke-miterlimit="10" stroke-width="1"/>
        <path id="Path_149" data-name="Path 149" d="M397.8,12.8h21.6v4.111H411.03v22.96h-4.864V16.907H397.8Z" transform="translate(-372.448 -11.98)" fill="#232323"/>
        <path id="Path_150" data-name="Path 150" d="M397.8,12.8h21.6v4.111H411.03v22.96h-4.864V16.907H397.8Z" transform="translate(-372.448 -11.98)" fill="none" stroke="#232323" stroke-miterlimit="10" stroke-width="1"/>
        <path id="Path_151" data-name="Path 151" d="M828.285,12.8h10.151c6.212,0,9.543,3.49,9.543,8.658,0,3.675-1.679,6.4-4.864,7.68l5.856,10.733H843.5l-5.314-9.913h-5v9.913h-4.9Zm9.424,13.086c3.635,0,5.274-1.547,5.274-4.428s-1.639-4.56-5.3-4.56h-4.494v8.988Z" transform="translate(-775.5 -11.981)" fill="#232323"/>
        <path id="Path_152" data-name="Path 152" d="M828.285,12.8h10.151c6.212,0,9.543,3.49,9.543,8.658,0,3.675-1.679,6.4-4.864,7.68l5.856,10.733H843.5l-5.314-9.913h-5v9.913h-4.9Zm9.424,13.086c3.635,0,5.274-1.547,5.274-4.428s-1.639-4.56-5.3-4.56h-4.494v8.988Z" transform="translate(-775.5 -11.981)" fill="none" stroke="#232323" stroke-miterlimit="10" stroke-width="1"/>
        <path id="Path_153" data-name="Path 153" d="M1294.79,10.213h-.19a.086.086,0,0,0-.089.085.125.125,0,0,0,0,.031.1.1,0,0,0,.083.094l.128.022a1.568,1.568,0,0,0,.235.023h.108v-.254h-.275m0,0h-.19a.086.086,0,0,0-.089.085.125.125,0,0,0,0,.031.1.1,0,0,0,.083.094l.128.022a1.568,1.568,0,0,0,.235.023h.108v-.254h-.275M1339,15.867l-3.644-2.475a1.155,1.155,0,0,1-.373-.418l-4.1-7.835a1.15,1.15,0,0,0-1.019-.617H1323.6L1321.628.728A1.4,1.4,0,0,0,1320.4,0h-28.787a1.405,1.405,0,0,0-1.4,1.405V6.258c.2.1.387.2.563.309s.362.227.525.344c2.623,1.889,1.935,4.2,2.173,4.3a3.4,3.4,0,0,1,.787.422,1.33,1.33,0,0,1,.461,1.574,2.267,2.267,0,0,1-.885,1.444c-.079.055-.525.077-.464.155a1.6,1.6,0,0,1-.355,2.532c-.015-.007-.178.083-.525.209a.243.243,0,0,0-.038.018.988.988,0,0,0-.549.812c-.021.308-.478.168-.585.446a.756.756,0,0,1-.412.48c-.1.033-.182.065-.26.1a1.705,1.705,0,0,0-.435.251v5.534a1.405,1.405,0,0,0,1.4,1.405h3.378a5.215,5.215,0,0,0,10.415,0h17.764a5.215,5.215,0,0,0,10.416,0h4.774a1.15,1.15,0,0,0,1.151-1.151V16.818a1.15,1.15,0,0,0-.5-.951M1313.178,4.1l1.059,5.509h-3.821l-.529-5.509Zm-7.005,0h3.291l.53,5.509h-3.82Zm-.424,0V9.611h-3.82l.53-5.509Zm-3.714,0-.53,5.509h-3.821l1.059-5.509ZM1300.2,28.914a2.6,2.6,0,0,1-2.586-2.322h.581a2.024,2.024,0,0,0,4.009,0h.582a2.6,2.6,0,0,1-2.586,2.322m16.659-12.24a.234.234,0,0,1-.233.233h-19.566a2.618,2.618,0,0,1-1.111.364,1.063,1.063,0,0,0-.2.035c-.157-.074-.321-.156-.495-.245,0,0-1.51-.408-.87-.054.168.091.854.419,1.18.545a1.1,1.1,0,0,0,.051.248c.077.254.153.509.224.766a8.317,8.317,0,0,1,.262,1.329c.08.794-.658.826-1.459.978a4.435,4.435,0,0,1-1.148-.739,1.98,1.98,0,0,0-.308-.223c-.245-.137-.368-.084-.348.059a1.09,1.09,0,0,0,.523.6,6.161,6.161,0,0,0,.95.5.2.2,0,0,0-.027.071c-.1.867-1.285.728-2.012.144,0,0-.161-.086-.384-.218a3.789,3.789,0,0,1-1.246-1.008.2.2,0,0,1,.1-.3c.81-.438,1.563-.567,1.457-1.316-.01-.3.052-.281.135-.379.341-.4.545-.32.709-.445,0,0,0-.005.008-.006.044-.023.087-.044.126-.069a3.061,3.061,0,0,0,.808-.681v0a1.974,1.974,0,0,0,.48-1.07,1.261,1.261,0,0,0-.112-.65.528.528,0,0,1,.071-.474,3.669,3.669,0,0,0,.645-1.173V11.918a1.565,1.565,0,0,0-.612-.771,1.167,1.167,0,0,0-.567-.184,3.216,3.216,0,0,0-.089-1.351h-.195l.1-.337a6.068,6.068,0,0,0-1.086-1.918q-.238-.293-.537-.6c-.219-.223-.465-.45-.739-.678-.047-.04-.1-.08-.148-.121.489-.223.458-.436.939-.6a.312.312,0,0,1,.062-.016c.621-.116,1.434,1.034,1.75,1.656-.111-.007-.229.049-.346.045l-.266-.012a.8.8,0,0,1-.166-.016l-.092.011c-.019.011-.039.022-.06.032a.254.254,0,0,0-.089.09.076.076,0,0,0,.063.114h0c.16.007.723-.012.835,0s.235.025.359.042c.021.018.042-.086.064-.07l.121-.305.7-2.478.1-.35h3.156l-1.059,5.509h-1.148a2.128,2.128,0,0,1-.089.378c-.005.015-.01.03-.015.045h20.848Zm-2.2-7.063L1313.6,4.1h3.156l.1.35,1.462,5.159Zm13.715,19.3a2.6,2.6,0,0,1-2.586-2.322h.582a2.024,2.024,0,0,0,4.009,0h.581a2.6,2.6,0,0,1-2.586,2.322m5.261-15.049h-10.512a.086.086,0,0,1-.086-.086V6.057a.086.086,0,0,1,.086-.086h5.836a1.067,1.067,0,0,1,.99.692l3.754,7.09a.076.076,0,0,1-.067.112m4.938,5.943a.091.091,0,0,1-.091.092h-1.763a.091.091,0,0,1-.088-.068l-.79-3a.091.091,0,0,1,.089-.114h2.553a.091.091,0,0,1,.091.091Zm-43.974-9.6a.086.086,0,0,0-.089.085.125.125,0,0,0,0,.031.1.1,0,0,0,.083.094l.128.022a1.568,1.568,0,0,0,.235.023h.108v-.254h-.465" transform="translate(-1207.984)" fill="#232323"/>
        <path id="Path_154" data-name="Path 154" d="M1291.776,84.158h-.19a.086.086,0,0,0-.089.084.132.132,0,0,0,0,.031.1.1,0,0,0,.083.094l.128.022a1.569,1.569,0,0,0,.235.023h.108v-.254h-.275m0,0h-.19a.086.086,0,0,0-.089.084.132.132,0,0,0,0,.031.1.1,0,0,0,.083.094l.128.022a1.569,1.569,0,0,0,.235.023h.108v-.254h-.275m3.779,5.4a3.461,3.461,0,0,0-.388-1.142,1.154,1.154,0,0,1-.1-1.055,2.845,2.845,0,0,0-1.057-3.237,1.2,1.2,0,0,1-.137-.131.161.161,0,0,1-.015-.018,1.456,1.456,0,0,1-.25-.423c-.013-.036-.026-.072-.035-.106-.132-.471-.173-.96-.272-1.439a1.245,1.245,0,0,0-1.091-1c-.262-.05-.526-.083-.861-.132l-.026,0a2.586,2.586,0,0,0-1.872-1.82,4.087,4.087,0,0,0-2.222.21c0,.157.046.322-.036.446V80.2c.2.1.387.2.564.309s.362.227.525.344c2.623,1.889,1.935,4.2,2.173,4.3a3.4,3.4,0,0,1,.786.422,1.33,1.33,0,0,1,.461,1.574,2.267,2.267,0,0,1-.885,1.444c-.079.055-.525.077-.464.155a1.6,1.6,0,0,1-.355,2.533c-.015-.007-.178.083-.525.209a.237.237,0,0,0-.038.018.988.988,0,0,0-.55.812c-.021.308-.478.168-.585.446a.755.755,0,0,1-.411.48c-.1.033-.182.065-.26.1a1.7,1.7,0,0,0-.435.251.5.5,0,0,0-.2.35.629.629,0,0,0,.2.447c.027.03.055.058.086.088a7.4,7.4,0,0,0,1.379.885,2.455,2.455,0,0,1,.33.206c.629.528,1.72.937,2.337.329.11-.109.2-.231.385-.437.053-.058.1-.112.134-.162.1-.128.157-.219.157-.219l.086-.033c.649-.266,1.353-.339,1.359-1.03a8.952,8.952,0,0,0-.162-1.4,4.343,4.343,0,0,0-.113-.476c-.016-.054-.031-.107-.043-.151.076-.023.15-.043.221-.062s.153-.035.224-.055a1.125,1.125,0,0,0,.31-.128.054.054,0,0,0,.016-.011c.407-.261.774-.575,1.162-.861l.033-.026a1.234,1.234,0,0,0,.46-1.29m-2.623,1.653a1.059,1.059,0,0,0-.2.035c-.157-.074-.321-.156-.495-.245,0,0-1.51-.408-.87-.054.168.091.854.419,1.18.545a1.11,1.11,0,0,0,.051.248c.077.254.153.509.224.766a8.343,8.343,0,0,1,.262,1.329c.08.794-.658.826-1.46.977a4.435,4.435,0,0,1-1.148-.739,1.973,1.973,0,0,0-.307-.223c-.245-.137-.368-.084-.348.059a1.091,1.091,0,0,0,.523.6,6.159,6.159,0,0,0,.949.5.2.2,0,0,0-.027.071c-.1.867-1.285.728-2.012.144,0,0-.161-.086-.384-.218A3.788,3.788,0,0,1,1287.626,94a.2.2,0,0,1,.1-.3c.81-.438,1.563-.567,1.457-1.316-.01-.3.052-.281.134-.379.341-.4.545-.32.709-.445,0,0,.005-.005.008-.006.044-.023.087-.044.126-.069a3.064,3.064,0,0,0,.808-.681v0a1.974,1.974,0,0,0,.48-1.07,1.259,1.259,0,0,0-.113-.65.528.528,0,0,1,.071-.474,3.665,3.665,0,0,0,.645-1.173,2.741,2.741,0,0,0,.113-1.093,1.826,1.826,0,0,0-.113-.486,1.564,1.564,0,0,0-.612-.771,1.168,1.168,0,0,0-.567-.184,3.214,3.214,0,0,0-.089-1.351c-.027-.108-.06-.22-.1-.337A6.062,6.062,0,0,0,1289.6,81.3q-.238-.293-.537-.6-.329-.335-.739-.678c-.047-.04-.1-.08-.148-.121.489-.223.458-.436.939-.6a.318.318,0,0,1,.061-.016c.621-.115,1.434,1.034,1.75,1.657-.111-.007-.229.049-.346.045l-.266-.012-.091,0-.153-.009a.821.821,0,0,1-.074.04c-.066.036-.059.2-.025.2.16.007.723-.012.835,0s1.031.088,1.129.136a1.907,1.907,0,0,1,1.166,2.213,2.117,2.117,0,0,1-.089.378c0,.015-.01.03-.015.045-.013.04-.028.019-.044.059-.3,0-.6.12-.9.12h-.465a.086.086,0,0,0-.089.084.132.132,0,0,0,0,.031.1.1,0,0,0,.083.094l.128.022a1.569,1.569,0,0,0,.235.023h.108c.446,0,.89-.072,1.336-.069.014,0,.028,0,.043,0a.558.558,0,0,1,.249.112l.005,0a2.219,2.219,0,0,1,1.094,2.424,1.964,1.964,0,0,1-.479.86,2.358,2.358,0,0,0-.216.294c-1.236-.173-1.668-.081-1.816.341.638-.01,1.294-.049,1.949-.017a.913.913,0,0,1,.581.327c.017.024.034.05.049.074a1.139,1.139,0,0,1-.026,1.331,2.541,2.541,0,0,1-.716.72l-.061.039a2.618,2.618,0,0,1-1.111.364m-1.156-7.058h-.19a.086.086,0,0,0-.089.084.132.132,0,0,0,0,.031.1.1,0,0,0,.083.094l.128.022a1.569,1.569,0,0,0,.235.023h.108v-.254h-.275m0,0h-.19a.086.086,0,0,0-.089.084.132.132,0,0,0,0,.031.1.1,0,0,0,.083.094l.128.022a1.569,1.569,0,0,0,.235.023h.108v-.254h-.275" transform="translate(-1204.97 -73.946)" fill="#232323"/>
        <path id="Path_155" data-name="Path 155" d="M1303.789,145.9a1.645,1.645,0,0,0-.357-.27.577.577,0,0,0-.272-.076.3.3,0,0,0-.192.073.488.488,0,0,0-.134.232,1,1,0,0,0,.043.629.615.615,0,0,0,.342.367.706.706,0,0,0,.614-.125c.031-.02.061-.042.091-.065.052-.04.053-.137.043-.2,0-.028-.035-.148-.088-.108a1.141,1.141,0,0,1-.323.181l.018-.006a.547.547,0,0,1-.318.017l.018.005a.447.447,0,0,1-.117-.052.49.49,0,0,1-.049-.036l-.011-.01,0,0-.023-.023a.542.542,0,0,1-.039-.047l-.018-.025-.008-.013,0-.007c-.01-.017.015.026.008.013s-.02-.036-.029-.055l-.013-.028c-.006-.014-.021-.058,0,0-.007-.02-.014-.041-.019-.062l-.007-.028c-.007-.03.007.033,0,.02l0-.018c0-.021-.006-.042-.009-.063s0,.056,0,.024v-.013c0-.011,0-.022,0-.032s0-.01,0-.015c0-.029,0,.05,0,.025s0-.021,0-.031,0-.019,0-.028c0-.025-.006.035,0,.024l0-.016c0-.009,0-.018.006-.027l0-.013c.007-.027-.011.034,0,.015a.5.5,0,0,1,.019-.049l.007-.013c.006-.012-.016.029-.009.018l0-.007.016-.024.017-.023.009-.01c.01-.012-.02.019-.006.006a.272.272,0,0,1,.1-.058l-.018.006a.351.351,0,0,1,.2,0l-.018-.005a1.009,1.009,0,0,1,.348.2l.059.05.028.025.006.006,0,0,.016.015c.016.015.031.028.054.015a.124.124,0,0,0,.039-.074.33.33,0,0,0,0-.122.175.175,0,0,0-.034-.094" transform="translate(-1219.778 -136.275)" fill="#232323"/>
        <path id="Path_156" data-name="Path 156" d="M1265.768,232.675c.125-.436-.288-.864-.675-.98a.594.594,0,0,0-.585.105.866.866,0,0,0-.172.673,1.324,1.324,0,0,1-.023.337,1.007,1.007,0,0,1-.069.2,1.876,1.876,0,0,0-.13.251,1,1,0,0,0,.021.645.8.8,0,0,0,.8.443.871.871,0,0,0,.852-.682.266.266,0,0,0-.03-.216c-.047-.049-.083.012-.093.059a.592.592,0,0,1-.206.334.851.851,0,0,1-.392.174.824.824,0,0,1-.761-.215c-.015-.017-.042-.057-.046-.064s-.013-.025-.019-.038l-.01-.022c-.005-.013,0,.013,0-.009,0-.007-.014-.054-.008-.024,0-.017-.006-.035-.008-.052,0,.035,0-.016,0-.027,0,.032,0-.034,0-.046a.23.23,0,0,1,.007-.04.308.308,0,0,1,.016-.065c-.01.021,0,.011.015-.011s.021-.034.03-.051c.021-.036.04-.074.058-.112a1.4,1.4,0,0,0,.117-.4,2.151,2.151,0,0,0,.016-.346c0-.047,0-.094,0-.141,0-.018,0-.076.006-.093a.378.378,0,0,1,.377-.286.849.849,0,0,1,.573.228.82.82,0,0,1,.179.211.315.315,0,0,1,.041.1c-.007-.027,0-.006,0,0,.007.036,0-.028,0,.007,0-.019,0-.025,0,0a.259.259,0,0,0,.03.216c.049.051.08-.015.093-.059" transform="translate(-1183.515 -216.898)" fill="#232323"/>
        <path id="Path_157" data-name="Path 157" d="M1250.96,198.686a.47.47,0,0,1-.417.025.382.382,0,0,1-.034-.023l-.014-.012c.016.014,0,0,0,0s-.02-.022-.028-.034l-.008-.012c-.011-.014.009.019,0-.008s-.013-.028-.019-.042c.016.038,0,0,0-.013s-.013-.014,0,.006a.088.088,0,0,1,0-.024s0-.025,0-.025,0,.042,0,.008c0-.009,0-.017,0-.026,0-.033,0,.039,0,.007s0-.036.005-.054.008-.023,0,.011c0-.009,0-.018.005-.027l.006-.028c0-.007.015-.047,0-.014a.906.906,0,0,1,.041-.1s.016-.031.005-.011l.01-.018c.012-.021.025-.041.039-.061a.737.737,0,0,1,.167-.17.315.315,0,0,1,.114-.062.408.408,0,0,1,.155-.007.331.331,0,0,1,.137.056.355.355,0,0,1,.087.091c.006.011.011.022.016.033s.006.015,0,0c0,.008,0,.016.007.024-.009-.033,0,.007,0,.012-.008-.051,0,.031,0,0s0,.02,0,.02c0-.028-.006.026-.008.032.005-.018-.011.03-.009.025a.454.454,0,0,1-.022.048.291.291,0,0,0-.019.217c.01.033.06.12.1.054a.686.686,0,0,0-.094-.849.416.416,0,0,0-.332-.081.556.556,0,0,0-.287.183.949.949,0,0,0-.253.564.7.7,0,0,0,.147.555.488.488,0,0,0,.568.035c.085-.039.053-.348-.044-.3" transform="translate(-1170.606 -185.05)" fill="#232323"/>
        <path id="Path_158" data-name="Path 158" d="M1313.476,180.712q.039.007.077.018l-.019-.005a.693.693,0,0,1,.178.077.607.607,0,0,1,.066.049c.015.013-.01-.011,0,0l.013.014q.014.015.026.031l.011.015s.014.023,0,.005,0,0,0,.006l.009.018.007.016c.008.02-.01-.032,0-.01s.008.053,0,0l0,.017c0,.025,0-.045,0-.02,0,.006,0,.011,0,.017,0,.025,0-.044,0-.02,0,.006,0,.011,0,.017,0-.048,0-.028,0-.015s0,.013,0,.02.012-.035,0-.007l.029-.041-.014,0,.018-.006a.955.955,0,0,1-.555.027l.019.005a.535.535,0,0,1-.152-.068l-.028-.021s-.018-.016,0,0,0,0-.006-.007a.245.245,0,0,1-.02-.023l-.009-.013c0,.005.015.027,0,.007l-.006-.013c-.008-.015.012.039.006.017l0-.012c.016.049.008.035,0,.019.01.054,0,.042,0,.025s0,.054,0,.025-.009.046,0,.022l0-.006c0-.016-.013.034-.006.019l.005-.013c.009-.021,0,.006,0,.007s.013-.021.021-.03l.011-.013c.014-.017-.014.012,0,0l.033-.028a.79.79,0,0,1,.232-.115l-.018.006c.047-.015.094-.028.142-.04s.067-.11.065-.16a.269.269,0,0,0-.023-.111c-.009-.016-.027-.051-.05-.045a1.265,1.265,0,0,0-.322.115.439.439,0,0,0-.165.146.424.424,0,0,0,.073.522.653.653,0,0,0,.414.132,1.018,1.018,0,0,0,.281-.035l.069-.021a.205.205,0,0,0,.032-.011.09.09,0,0,0,.029-.041.458.458,0,0,0,.02-.063.644.644,0,0,0,.013-.226.52.52,0,0,0-.169-.334.706.706,0,0,0-.348-.158c-.022,0-.042.034-.048.047a.275.275,0,0,0-.017.112c0,.05.011.144.073.156" transform="translate(-1229.321 -168.875)" fill="#232323"/>
        <path id="Path_159" data-name="Path 159" d="M1304.47,212.1a2,2,0,0,0-.34.579,1.137,1.137,0,0,0,.051.669c.093.269.37.695.7.443a1.216,1.216,0,0,0,.347-.63,1.619,1.619,0,0,0,.057-.8.333.333,0,0,0-.165-.249.353.353,0,0,0-.312.086c-.08.056-.034.359.044.3a.357.357,0,0,1,.222-.087.121.121,0,0,1,.058.025.3.3,0,0,0,.02.026s-.01-.019,0,0,.016.036.008.016.013.052.007.022,0,.007,0,.013,0,.022,0,.033c0,.029,0-.032,0,0,0,.01,0,.021,0,.031s0,.025,0,.038c0,.037,0-.019,0,.008,0,.05-.008.1-.015.149,0,.022,0-.023,0,0l0,.019c0,.012,0,.025-.007.037s-.011.054-.018.081a1.285,1.285,0,0,1-.235.52.315.315,0,0,1-.222.119.38.38,0,0,1-.3-.218.928.928,0,0,1-.1-.234.6.6,0,0,1-.031-.2.653.653,0,0,1,.119-.261c.059-.091.127-.177.19-.265a.273.273,0,0,0,.019-.217c-.012-.04-.054-.113-.1-.054" transform="translate(-1220.992 -198.559)" fill="#232323"/>
        <path id="Path_160" data-name="Path 160" d="M1283.03,164.64a.261.261,0,0,0-.235.12.45.45,0,0,0-.066.2.562.562,0,0,0,.022.232.162.162,0,0,0,.026.056.045.045,0,0,0,.035.021l.156-.044c.053-.015.108-.028.16-.046a.2.2,0,0,0,.1-.207.277.277,0,0,0-.047-.166c-.015-.018-.041-.04-.067-.032a.033.033,0,0,0-.026.014.069.069,0,0,0-.021.033.275.275,0,0,0-.017.112.269.269,0,0,0,.023.111c.008.015.027.052.05.045a.029.029,0,0,1,.014,0l-.018-.005a.035.035,0,0,1,.012.007l-.017-.015.007.009-.015-.024,0,0a.147.147,0,0,1-.011-.039.143.143,0,0,1,0-.082q.02-.1,0-.064l.013-.025a.077.077,0,0,1-.011.015l.016-.016a.121.121,0,0,1-.042.023l.018-.006c-.1.032-.2.056-.3.084l.062.077-.006-.021,0,.021s0-.007,0-.011,0-.007,0,.025c0,0,0-.007,0-.011,0-.033,0,.031,0,.017s.008-.035,0,.013l0-.022c0-.013,0-.007-.005.016l0-.01.009-.02-.013.025a.237.237,0,0,1,.038-.053l-.016.016a.232.232,0,0,1,.085-.054l-.018.006a.212.212,0,0,1,.089-.01c.023,0,.041-.032.048-.047a.275.275,0,0,0,.017-.112.267.267,0,0,0-.023-.111c-.011-.021-.024-.043-.05-.045" transform="translate(-1200.981 -154.147)" fill="#232323"/>
        <path id="Path_161" data-name="Path 161" d="M1239.632,245.69a.172.172,0,0,0-.172.026.345.345,0,0,0-.115.205.9.9,0,0,0-.016.29.216.216,0,0,0,.14.2.649.649,0,0,0,.406-.02.275.275,0,0,0,.081-.039.218.218,0,0,0,.068-.157.254.254,0,0,0-.121-.266.776.776,0,0,0-.23-.048,1.349,1.349,0,0,0-.252,0c-.06.005-.067.117-.065.16a.267.267,0,0,0,.023.111c.01.018.025.047.05.045a1.292,1.292,0,0,1,.436.035l-.019-.005a.211.211,0,0,1,.052.023c.006,0,.021.02.009.005l.008.011a.17.17,0,0,1-.024-.064l0-.084a.187.187,0,0,1,.018-.062c.007-.007.007-.006,0,0l-.025.014a.612.612,0,0,1-.067.026l.018-.006a.634.634,0,0,1-.351.013l.018.005a.177.177,0,0,1-.048-.02l-.01-.007c.006.006.008.007,0,0s-.005,0,.013.03a.14.14,0,0,1,.005.033c0,.03,0-.009,0-.015,0-.031,0,.037,0,0s0-.038,0-.057-.008.032,0,0l0-.014c0-.009,0-.006,0,.01a.179.179,0,0,0,.01-.026c-.008.02,0,0,0,0l.015-.018c-.012.013,0,0,.007-.005a.182.182,0,0,1,.047-.026l-.018.006a.133.133,0,0,1,.074,0l-.018-.005.014.005c.059.023.079-.072.082-.112a.327.327,0,0,0-.01-.122c-.007-.023-.018-.062-.043-.072" transform="translate(-1160.345 -230.021)" fill="#232323"/>
        <path id="Path_162" data-name="Path 162" d="M1242.739,245.657a.226.226,0,0,1,.08.007l-.019-.005a.232.232,0,0,1,.094.052l-.017-.016a.224.224,0,0,1,.037.046l-.015-.024.01.019a.054.054,0,0,0,0,.011s-.012-.034-.007-.018l0,.011v0q0,.017-.005-.026c0,.008,0,.037,0,0s0-.006,0,0,0-.047,0-.028v.012c0,.015.007-.039,0-.024l0,.011c0,.016.006-.019.006-.019l0,.013a.293.293,0,0,0-.017.112.271.271,0,0,0,.023.111c.009.018.025.048.05.045s.039-.026.048-.047a.538.538,0,0,0,.028-.26.43.43,0,0,0-.072-.2.267.267,0,0,0-.237-.112c-.025,0-.039.028-.048.047a.275.275,0,0,0-.018.112.267.267,0,0,0,.023.111c.01.018.025.047.05.045" transform="translate(-1163.473 -229.705)" fill="#232323"/>
        <path id="Path_163" data-name="Path 163" d="M1280.24,193.405c.1,0,.091-.316-.008-.316s-.091.316.008.316" transform="translate(-1198.582 -180.784)" fill="#232323"/>
        <path id="Path_164" data-name="Path 164" d="M1291.214,208.236a.261.261,0,0,0,.235-.12.448.448,0,0,0,.066-.2.556.556,0,0,0-.022-.232.164.164,0,0,0-.026-.056.045.045,0,0,0-.035-.021l-.156.044c-.053.015-.107.028-.16.046a.2.2,0,0,0-.1.207.277.277,0,0,0,.047.166c.015.018.041.04.067.032a.034.034,0,0,0,.026-.014.071.071,0,0,0,.021-.033.275.275,0,0,0,.018-.112.267.267,0,0,0-.023-.111c-.008-.015-.027-.052-.05-.045a.028.028,0,0,1-.014,0l.018.005a.036.036,0,0,1-.012-.007l.017.016-.007-.009.015.024,0,0a.152.152,0,0,1,.012.039.144.144,0,0,1,0,.082q-.02.1,0,.064l-.013.025a.077.077,0,0,1,.011-.015l-.016.016a.122.122,0,0,1,.042-.023l-.018.006c.1-.032.2-.056.3-.084l-.062-.077c0,.007,0,.014.006.021s0,.007,0-.021l0,.011q0,.024,0-.025s0,.007,0,.011c0,.033,0-.031,0-.017s-.008.035,0-.013l0,.022.005-.016,0,.01-.009.02.013-.025a.234.234,0,0,1-.038.053l.016-.016a.231.231,0,0,1-.085.054l.018-.006a.211.211,0,0,1-.089.01c-.023,0-.041.032-.048.047a.273.273,0,0,0-.017.112.267.267,0,0,0,.023.111c.011.021.024.042.05.045" transform="translate(-1208.738 -194.378)" fill="#232323"/>
        <path id="Path_165" data-name="Path 165" d="M8,612.719H26.611v4.345H13.184v7.769H25.647v4.345H13.184v7.811H26.723v4.345H8Z" transform="translate(-7.49 -573.672)" fill="#ffc92b"/>
        <path id="Path_166" data-name="Path 166" d="M26.287,640.9H7.5V612.219H26.175v4.409H12.748v7.705H25.211v4.409H12.748v7.747H26.287Zm-18.723-.064H26.223v-4.282H12.684v-7.874H25.147V624.4H12.684v-7.833H26.111v-4.282H7.564Z" transform="translate(-7.022 -573.204)" fill="#ffc92b"/>
        <path id="Path_167" data-name="Path 167" d="M397.019,641.335l10.074-28.616h6.4l10.088,28.616h-5.533l-2.375-7.056H404.914l-2.361,7.056Zm17.256-11.22-3.87-11.527h-.224l-3.87,11.527Z" transform="translate(-371.718 -573.672)" fill="#ffc92b"/>
        <path id="Path_168" data-name="Path 168" d="M422.965,640.9h-5.6l-2.375-7.056H404.275l-2.361,7.056h-5.6l.015-.042,10.082-28.637h6.445l.008.021Zm-5.555-.064h5.465l-10.066-28.552h-6.354L396.4,640.835h5.465l2.361-7.056h10.8Zm-3.751-11.156h-8.053l3.892-11.591h.269l.007.022Zm-7.964-.064h7.876l-3.849-11.464h-.178Z" transform="translate(-371.057 -573.204)" fill="#ffc92b"/>
        <path id="Path_169" data-name="Path 169" d="M839.451,612.719h22.831v4.345h-8.845v24.27H848.3v-24.27h-8.845Z" transform="translate(-785.954 -573.672)" fill="#ffc92b"/>
        <path id="Path_170" data-name="Path 170" d="M853,640.9h-5.206v-24.27H838.95v-4.409h22.895v4.409H853Zm-5.142-.064h5.078v-24.27h8.845v-4.282H839.014v4.282h8.845Z" transform="translate(-785.486 -573.204)" fill="#ffc92b"/>
        <path id="Path_171" data-name="Path 171" d="M1312.092,612.719H1330.7v4.345h-13.428v7.769h12.464v4.345h-12.464v7.811h13.539v4.345h-18.723Z" transform="translate(-1228.476 -573.672)" fill="#ffc92b"/>
        <path id="Path_172" data-name="Path 172" d="M1330.379,640.9h-18.787V612.219h18.675v4.409H1316.84v7.705H1329.3v4.409H1316.84v7.747h13.539Zm-18.723-.064h18.659v-4.282h-13.539v-7.874h12.464V624.4h-12.464v-7.833H1330.2v-4.282h-18.548Z" transform="translate(-1228.007 -573.204)" fill="#ffc92b"/>
        <path id="Path_173" data-name="Path 173" d="M1734.287,629.537a7.888,7.888,0,0,0,3.816-3.11,9.287,9.287,0,0,0,1.313-5.024,8.854,8.854,0,0,0-2.591-6.648,10.729,10.729,0,0,0-7.529-2.536h-10.763V640.9h5.248V630.419h5.231l5.608,10.463.009.017h5.857Zm-10.507-12.923h4.719c3.7,0,5.571,1.611,5.571,4.789,0,3.128-1.813,4.649-5.543,4.649h-4.747Z" transform="translate(-1609.015 -573.204)" fill="#ffc92b"/>
    </g>
</svg>
