<svg id="Group_234" data-name="Group 234" xmlns="http://www.w3.org/2000/svg" xmlns:xlink="http://www.w3.org/1999/xlink" width="34.037" height="32" viewBox="0 0 34.037 32">
    <defs>
        <clipPath id="clip-path">
            <rect id="Rectangle_93" data-name="Rectangle 93" width="34.037" height="32" fill="none"/>
        </clipPath>
    </defs>
    <g id="Group_233" data-name="Group 233" clip-path="url(#clip-path)">
        <path id="Path_209" data-name="Path 209" d="M32.225,74.25h-.867c-.8-7.094-5.994-12.733-12.532-13.623v-.857a1.256,1.256,0,0,0-1.253-1.253h-1.11a1.256,1.256,0,0,0-1.253,1.253v.852A14.333,14.333,0,0,0,4.94,67.56a16.419,16.419,0,0,0-2.265,6.69H1.811a1.811,1.811,0,0,0,0,3.623H32.225a1.811,1.811,0,1,0,0-3.623M6.787,68.682a12.029,12.029,0,0,1,10.231-6.02c6.185,0,11.314,5.046,12.165,11.589H4.851a14.231,14.231,0,0,1,1.936-5.569" transform="translate(0 -45.873)" fill="#232323"/>
        <path id="Path_210" data-name="Path 210" d="M40.853,84.575a.341.341,0,0,0-.475-.116A12.278,12.278,0,0,0,34.355,90.8c-.048.128.137.2.226.086a13.045,13.045,0,0,1,6.708-4.44.321.321,0,0,0,.238-.422Z" transform="translate(-26.925 -66.17)" fill="#232323"/>
        <path id="Path_211" data-name="Path 211" d="M27.051,34.566c.019.075.041.163.059.244a.3.3,0,0,0,.293.233h1.418a.3.3,0,0,0,.3-.35c-.03-.2-.08-.4-.132-.61a2.817,2.817,0,0,1,.166-2.406l.029-.051a4.905,4.905,0,0,0,.163-4.18l-.25-.577-.017-.038c-.393-.814-.237-.777-.085-1.368a5.812,5.812,0,0,0,.126-.57.3.3,0,0,0-.3-.35H27.4a.3.3,0,0,0-.293.232c-.016.065-.033.133-.048.193a3.025,3.025,0,0,0,.212,2.712l.242.559a2.91,2.91,0,0,1-.078,2.421,4.753,4.753,0,0,0-.385,3.906" transform="translate(-21.01 -19.24)" fill="#232323"/>
        <path id="Path_212" data-name="Path 212" d="M72.245,10.023c.019.075.041.163.059.244a.3.3,0,0,0,.293.233h1.418a.3.3,0,0,0,.3-.35c-.03-.2-.08-.4-.132-.61a2.817,2.817,0,0,1,.166-2.406l.029-.051a4.908,4.908,0,0,0,.163-4.18l-.25-.577-.017-.038A2.617,2.617,0,0,1,74.187.272c.05-.193.1.268.126.078a.3.3,0,0,0-.3-.35H72.6A.3.3,0,0,0,72.3.232c-.016.065-.033.133-.048.193a3.026,3.026,0,0,0,.212,2.713l.242.559a2.911,2.911,0,0,1-.078,2.421,4.753,4.753,0,0,0-.385,3.906" transform="translate(-56.438)" fill="#232323"/>
        <path id="Path_213" data-name="Path 213" d="M117.17,34.566c.019.075.041.163.059.244a.3.3,0,0,0,.293.233h1.418a.3.3,0,0,0,.3-.35c-.03-.2-.08-.4-.132-.61a2.817,2.817,0,0,1,.166-2.406l.029-.051a4.907,4.907,0,0,0,.163-4.18l-.25-.577-.017-.038c-.393-.814-.237-.777-.085-1.368a5.812,5.812,0,0,0,.126-.57.3.3,0,0,0-.3-.35h-1.42a.3.3,0,0,0-.293.232c-.016.065-.033.133-.048.193a3.025,3.025,0,0,0,.212,2.712l.242.559a2.91,2.91,0,0,1-.078,2.421,4.753,4.753,0,0,0-.385,3.906" transform="translate(-91.655 -19.24)" fill="#232323"/>
    </g>
</svg>
