<svg xmlns="http://www.w3.org/2000/svg" width="463.215" height="77.489" viewBox="0 0 463.215 77.489"><g transform="translate(47.563 -101.697)"><g transform="translate(-4.282 101.697)" opacity="0.66"><rect width="44.36" height="29.125" transform="translate(5.762 1.939)" fill="#ffc92b"/><path d="M85.057,26.918l-6.183-4.2a1.958,1.958,0,0,1-.633-.71L71.288,8.718a1.951,1.951,0,0,0-1.729-1.047H58.916L55.371,1.234A2.381,2.381,0,0,0,53.283,0H2.383A2.384,2.384,0,0,0,0,2.384V42.73a2.384,2.384,0,0,0,2.383,2.384H8.114a8.847,8.847,0,0,0,17.67,0H58.19a8.847,8.847,0,0,0,17.67,0h8.1a1.952,1.952,0,0,0,1.952-1.952V28.532a1.952,1.952,0,0,0-.855-1.614M45.212,16.306H41.487l-1.8-9.346h5.353l.168.593,2.481,8.753ZM8.411,6.96h5.353l-1.8,9.346H5.762L8.243,7.553Zm6.072,0h5.583l-.9,9.346H12.687Zm6.3,0h5.582v9.346H19.888Zm6.3,0H32.67l.9,9.346H27.087Zm6.3,0h5.583l1.8,9.346H34.287ZM16.949,49.054a4.419,4.419,0,0,1-4.387-3.94h.987a3.433,3.433,0,0,0,6.8,0h.987a4.419,4.419,0,0,1-4.387,3.94M44.817,28.684H8.638a.4.4,0,0,1-.395-.395V17.024H45.212V28.289a.4.4,0,0,1-.395.395M67.024,49.054a4.419,4.419,0,0,1-4.387-3.94h.987a3.433,3.433,0,0,0,6.8,0h.987a4.419,4.419,0,0,1-4.387,3.94m8.925-25.531H58.115a.145.145,0,0,1-.145-.145v-13.1a.145.145,0,0,1,.145-.145h9.9a1.81,1.81,0,0,1,1.679,1.175l6.369,12.028a.129.129,0,0,1-.114.19m8.377,10.082a.155.155,0,0,1-.155.156H81.181a.154.154,0,0,1-.15-.116l-1.341-5.084a.155.155,0,0,1,.151-.194h4.33a.154.154,0,0,1,.155.155Z" fill="#232323"/></g><g transform="translate(89.718 101.697)" opacity="0.66"><rect width="44.36" height="29.125" transform="translate(5.762 1.939)" fill="#ffc92b"/><path d="M85.057,26.918l-6.183-4.2a1.958,1.958,0,0,1-.633-.71L71.288,8.718a1.951,1.951,0,0,0-1.729-1.047H58.916L55.371,1.234A2.381,2.381,0,0,0,53.283,0H2.383A2.384,2.384,0,0,0,0,2.384V42.73a2.384,2.384,0,0,0,2.383,2.384H8.114a8.847,8.847,0,0,0,17.67,0H58.19a8.847,8.847,0,0,0,17.67,0h8.1a1.952,1.952,0,0,0,1.952-1.952V28.532a1.952,1.952,0,0,0-.855-1.614M45.212,16.306H41.487l-1.8-9.346h5.353l.168.593,2.481,8.753ZM8.411,6.96h5.353l-1.8,9.346H5.762L8.243,7.553Zm6.072,0h5.583l-.9,9.346H12.687Zm6.3,0h5.582v9.346H19.888Zm6.3,0H32.67l.9,9.346H27.087Zm6.3,0h5.583l1.8,9.346H34.287ZM16.949,49.054a4.419,4.419,0,0,1-4.387-3.94h.987a3.433,3.433,0,0,0,6.8,0h.987a4.419,4.419,0,0,1-4.387,3.94M44.817,28.684H8.638a.4.4,0,0,1-.395-.395V17.024H45.212V28.289a.4.4,0,0,1-.395.395M67.024,49.054a4.419,4.419,0,0,1-4.387-3.94h.987a3.433,3.433,0,0,0,6.8,0h.987a4.419,4.419,0,0,1-4.387,3.94m8.925-25.531H58.115a.145.145,0,0,1-.145-.145v-13.1a.145.145,0,0,1,.145-.145h9.9a1.81,1.81,0,0,1,1.679,1.175l6.369,12.028a.129.129,0,0,1-.114.19m8.377,10.082a.155.155,0,0,1-.155.156H81.181a.154.154,0,0,1-.15-.116l-1.341-5.084a.155.155,0,0,1,.151-.194h4.33a.154.154,0,0,1,.155.155Z" fill="#232323"/></g><g transform="translate(183.718 101.697)" opacity="0.66"><rect width="44.36" height="29.125" transform="translate(5.762 1.939)" fill="#ffc92b"/><path d="M85.057,26.918l-6.183-4.2a1.958,1.958,0,0,1-.633-.71L71.288,8.718a1.951,1.951,0,0,0-1.729-1.047H58.916L55.371,1.234A2.381,2.381,0,0,0,53.283,0H2.383A2.384,2.384,0,0,0,0,2.384V42.73a2.384,2.384,0,0,0,2.383,2.384H8.114a8.847,8.847,0,0,0,17.67,0H58.19a8.847,8.847,0,0,0,17.67,0h8.1a1.952,1.952,0,0,0,1.952-1.952V28.532a1.952,1.952,0,0,0-.855-1.614M45.212,16.306H41.487l-1.8-9.346h5.353l.168.593,2.481,8.753ZM8.411,6.96h5.353l-1.8,9.346H5.762L8.243,7.553Zm6.072,0h5.583l-.9,9.346H12.687Zm6.3,0h5.582v9.346H19.888Zm6.3,0H32.67l.9,9.346H27.087Zm6.3,0h5.583l1.8,9.346H34.287ZM16.949,49.054a4.419,4.419,0,0,1-4.387-3.94h.987a3.433,3.433,0,0,0,6.8,0h.987a4.419,4.419,0,0,1-4.387,3.94M44.817,28.684H8.638a.4.4,0,0,1-.395-.395V17.024H45.212V28.289a.4.4,0,0,1-.395.395M67.024,49.054a4.419,4.419,0,0,1-4.387-3.94h.987a3.433,3.433,0,0,0,6.8,0h.987a4.419,4.419,0,0,1-4.387,3.94m8.925-25.531H58.115a.145.145,0,0,1-.145-.145v-13.1a.145.145,0,0,1,.145-.145h9.9a1.81,1.81,0,0,1,1.679,1.175l6.369,12.028a.129.129,0,0,1-.114.19m8.377,10.082a.155.155,0,0,1-.155.156H81.181a.154.154,0,0,1-.15-.116l-1.341-5.084a.155.155,0,0,1,.151-.194h4.33a.154.154,0,0,1,.155.155Z" fill="#232323"/></g><g transform="translate(278.37 101.697)" opacity="0.66"><rect width="44.36" height="29.125" transform="translate(5.762 1.939)" fill="#ffc92b"/><path d="M85.057,26.918l-6.183-4.2a1.958,1.958,0,0,1-.633-.71L71.288,8.718a1.951,1.951,0,0,0-1.729-1.047H58.916L55.371,1.234A2.381,2.381,0,0,0,53.283,0H2.383A2.384,2.384,0,0,0,0,2.384V42.73a2.384,2.384,0,0,0,2.383,2.384H8.114a8.847,8.847,0,0,0,17.67,0H58.19a8.847,8.847,0,0,0,17.67,0h8.1a1.952,1.952,0,0,0,1.952-1.952V28.532a1.952,1.952,0,0,0-.855-1.614M45.212,16.306H41.487l-1.8-9.346h5.353l.168.593,2.481,8.753ZM8.411,6.96h5.353l-1.8,9.346H5.762L8.243,7.553Zm6.072,0h5.583l-.9,9.346H12.687Zm6.3,0h5.582v9.346H19.888Zm6.3,0H32.67l.9,9.346H27.087Zm6.3,0h5.583l1.8,9.346H34.287ZM16.949,49.054a4.419,4.419,0,0,1-4.387-3.94h.987a3.433,3.433,0,0,0,6.8,0h.987a4.419,4.419,0,0,1-4.387,3.94M44.817,28.684H8.638a.4.4,0,0,1-.395-.395V17.024H45.212V28.289a.4.4,0,0,1-.395.395M67.024,49.054a4.419,4.419,0,0,1-4.387-3.94h.987a3.433,3.433,0,0,0,6.8,0h.987a4.419,4.419,0,0,1-4.387,3.94m8.925-25.531H58.115a.145.145,0,0,1-.145-.145v-13.1a.145.145,0,0,1,.145-.145h9.9a1.81,1.81,0,0,1,1.679,1.175l6.369,12.028a.129.129,0,0,1-.114.19m8.377,10.082a.155.155,0,0,1-.155.156H81.181a.154.154,0,0,1-.15-.116l-1.341-5.084a.155.155,0,0,1,.151-.194h4.33a.154.154,0,0,1,.155.155Z" fill="#232323"/></g><g transform="translate(-47.563 125.697)"><rect width="44.36" height="29.125" transform="translate(5.762 1.939)" fill="#ffc92b"/><path d="M85.057,26.918l-6.183-4.2a1.958,1.958,0,0,1-.633-.71L71.288,8.718a1.951,1.951,0,0,0-1.729-1.047H58.916L55.371,1.234A2.381,2.381,0,0,0,53.283,0H2.383A2.384,2.384,0,0,0,0,2.384V42.73a2.384,2.384,0,0,0,2.383,2.384H8.114a8.847,8.847,0,0,0,17.67,0H58.19a8.847,8.847,0,0,0,17.67,0h8.1a1.952,1.952,0,0,0,1.952-1.952V28.532a1.952,1.952,0,0,0-.855-1.614M45.212,16.306H41.487l-1.8-9.346h5.353l.168.593,2.481,8.753ZM8.411,6.96h5.353l-1.8,9.346H5.762L8.243,7.553Zm6.072,0h5.583l-.9,9.346H12.687Zm6.3,0h5.582v9.346H19.888Zm6.3,0H32.67l.9,9.346H27.087Zm6.3,0h5.583l1.8,9.346H34.287ZM16.949,49.054a4.419,4.419,0,0,1-4.387-3.94h.987a3.433,3.433,0,0,0,6.8,0h.987a4.419,4.419,0,0,1-4.387,3.94M44.817,28.684H8.638a.4.4,0,0,1-.395-.395V17.024H45.212V28.289a.4.4,0,0,1-.395.395M67.024,49.054a4.419,4.419,0,0,1-4.387-3.94h.987a3.433,3.433,0,0,0,6.8,0h.987a4.419,4.419,0,0,1-4.387,3.94m8.925-25.531H58.115a.145.145,0,0,1-.145-.145v-13.1a.145.145,0,0,1,.145-.145h9.9a1.81,1.81,0,0,1,1.679,1.175l6.369,12.028a.129.129,0,0,1-.114.19m8.377,10.082a.155.155,0,0,1-.155.156H81.181a.154.154,0,0,1-.15-.116l-1.341-5.084a.155.155,0,0,1,.151-.194h4.33a.154.154,0,0,1,.155.155Z" fill="#232323"/></g><g transform="translate(46.437 125.697)"><rect width="44.36" height="29.125" transform="translate(5.762 1.939)" fill="#ffc92b"/><path d="M85.057,26.918l-6.183-4.2a1.958,1.958,0,0,1-.633-.71L71.288,8.718a1.951,1.951,0,0,0-1.729-1.047H58.916L55.371,1.234A2.381,2.381,0,0,0,53.283,0H2.383A2.384,2.384,0,0,0,0,2.384V42.73a2.384,2.384,0,0,0,2.383,2.384H8.114a8.847,8.847,0,0,0,17.67,0H58.19a8.847,8.847,0,0,0,17.67,0h8.1a1.952,1.952,0,0,0,1.952-1.952V28.532a1.952,1.952,0,0,0-.855-1.614M45.212,16.306H41.487l-1.8-9.346h5.353l.168.593,2.481,8.753ZM8.411,6.96h5.353l-1.8,9.346H5.762L8.243,7.553Zm6.072,0h5.583l-.9,9.346H12.687Zm6.3,0h5.582v9.346H19.888Zm6.3,0H32.67l.9,9.346H27.087Zm6.3,0h5.583l1.8,9.346H34.287ZM16.949,49.054a4.419,4.419,0,0,1-4.387-3.94h.987a3.433,3.433,0,0,0,6.8,0h.987a4.419,4.419,0,0,1-4.387,3.94M44.817,28.684H8.638a.4.4,0,0,1-.395-.395V17.024H45.212V28.289a.4.4,0,0,1-.395.395M67.024,49.054a4.419,4.419,0,0,1-4.387-3.94h.987a3.433,3.433,0,0,0,6.8,0h.987a4.419,4.419,0,0,1-4.387,3.94m8.925-25.531H58.115a.145.145,0,0,1-.145-.145v-13.1a.145.145,0,0,1,.145-.145h9.9a1.81,1.81,0,0,1,1.679,1.175l6.369,12.028a.129.129,0,0,1-.114.19m8.377,10.082a.155.155,0,0,1-.155.156H81.181a.154.154,0,0,1-.15-.116l-1.341-5.084a.155.155,0,0,1,.151-.194h4.33a.154.154,0,0,1,.155.155Z" fill="#232323"/></g><g transform="translate(140.437 125.697)"><rect width="44.36" height="29.125" transform="translate(5.762 1.939)" fill="#ffc92b"/><path d="M85.057,26.918l-6.183-4.2a1.958,1.958,0,0,1-.633-.71L71.288,8.718a1.951,1.951,0,0,0-1.729-1.047H58.916L55.371,1.234A2.381,2.381,0,0,0,53.283,0H2.383A2.384,2.384,0,0,0,0,2.384V42.73a2.384,2.384,0,0,0,2.383,2.384H8.114a8.847,8.847,0,0,0,17.67,0H58.19a8.847,8.847,0,0,0,17.67,0h8.1a1.952,1.952,0,0,0,1.952-1.952V28.532a1.952,1.952,0,0,0-.855-1.614M45.212,16.306H41.487l-1.8-9.346h5.353l.168.593,2.481,8.753ZM8.411,6.96h5.353l-1.8,9.346H5.762L8.243,7.553Zm6.072,0h5.583l-.9,9.346H12.687Zm6.3,0h5.582v9.346H19.888Zm6.3,0H32.67l.9,9.346H27.087Zm6.3,0h5.583l1.8,9.346H34.287ZM16.949,49.054a4.419,4.419,0,0,1-4.387-3.94h.987a3.433,3.433,0,0,0,6.8,0h.987a4.419,4.419,0,0,1-4.387,3.94M44.817,28.684H8.638a.4.4,0,0,1-.395-.395V17.024H45.212V28.289a.4.4,0,0,1-.395.395M67.024,49.054a4.419,4.419,0,0,1-4.387-3.94h.987a3.433,3.433,0,0,0,6.8,0h.987a4.419,4.419,0,0,1-4.387,3.94m8.925-25.531H58.115a.145.145,0,0,1-.145-.145v-13.1a.145.145,0,0,1,.145-.145h9.9a1.81,1.81,0,0,1,1.679,1.175l6.369,12.028a.129.129,0,0,1-.114.19m8.377,10.082a.155.155,0,0,1-.155.156H81.181a.154.154,0,0,1-.15-.116l-1.341-5.084a.155.155,0,0,1,.151-.194h4.33a.154.154,0,0,1,.155.155Z" fill="#232323"/></g><g transform="translate(235.088 125.697)"><rect width="44.36" height="29.125" transform="translate(5.762 1.939)" fill="#ffc92b"/><path d="M85.057,26.918l-6.183-4.2a1.958,1.958,0,0,1-.633-.71L71.288,8.718a1.951,1.951,0,0,0-1.729-1.047H58.916L55.371,1.234A2.381,2.381,0,0,0,53.283,0H2.383A2.384,2.384,0,0,0,0,2.384V42.73a2.384,2.384,0,0,0,2.383,2.384H8.114a8.847,8.847,0,0,0,17.67,0H58.19a8.847,8.847,0,0,0,17.67,0h8.1a1.952,1.952,0,0,0,1.952-1.952V28.532a1.952,1.952,0,0,0-.855-1.614M45.212,16.306H41.487l-1.8-9.346h5.353l.168.593,2.481,8.753ZM8.411,6.96h5.353l-1.8,9.346H5.762L8.243,7.553Zm6.072,0h5.583l-.9,9.346H12.687Zm6.3,0h5.582v9.346H19.888Zm6.3,0H32.67l.9,9.346H27.087Zm6.3,0h5.583l1.8,9.346H34.287ZM16.949,49.054a4.419,4.419,0,0,1-4.387-3.94h.987a3.433,3.433,0,0,0,6.8,0h.987a4.419,4.419,0,0,1-4.387,3.94M44.817,28.684H8.638a.4.4,0,0,1-.395-.395V17.024H45.212V28.289a.4.4,0,0,1-.395.395M67.024,49.054a4.419,4.419,0,0,1-4.387-3.94h.987a3.433,3.433,0,0,0,6.8,0h.987a4.419,4.419,0,0,1-4.387,3.94m8.925-25.531H58.115a.145.145,0,0,1-.145-.145v-13.1a.145.145,0,0,1,.145-.145h9.9a1.81,1.81,0,0,1,1.679,1.175l6.369,12.028a.129.129,0,0,1-.114.19m8.377,10.082a.155.155,0,0,1-.155.156H81.181a.154.154,0,0,1-.15-.116l-1.341-5.084a.155.155,0,0,1,.151-.194h4.33a.154.154,0,0,1,.155.155Z" fill="#232323"/></g><g transform="translate(329.74 125.697)"><rect width="44.36" height="29.125" transform="translate(5.762 1.939)" fill="#ffc92b"/><path d="M85.057,26.918l-6.183-4.2a1.958,1.958,0,0,1-.633-.71L71.288,8.718a1.951,1.951,0,0,0-1.729-1.047H58.916L55.371,1.234A2.381,2.381,0,0,0,53.283,0H2.383A2.384,2.384,0,0,0,0,2.384V42.73a2.384,2.384,0,0,0,2.383,2.384H8.114a8.847,8.847,0,0,0,17.67,0H58.19a8.847,8.847,0,0,0,17.67,0h8.1a1.952,1.952,0,0,0,1.952-1.952V28.532a1.952,1.952,0,0,0-.855-1.614M45.212,16.306H41.487l-1.8-9.346h5.353l.168.593,2.481,8.753ZM8.411,6.96h5.353l-1.8,9.346H5.762L8.243,7.553Zm6.072,0h5.583l-.9,9.346H12.687Zm6.3,0h5.582v9.346H19.888Zm6.3,0H32.67l.9,9.346H27.087Zm6.3,0h5.583l1.8,9.346H34.287ZM16.949,49.054a4.419,4.419,0,0,1-4.387-3.94h.987a3.433,3.433,0,0,0,6.8,0h.987a4.419,4.419,0,0,1-4.387,3.94M44.817,28.684H8.638a.4.4,0,0,1-.395-.395V17.024H45.212V28.289a.4.4,0,0,1-.395.395M67.024,49.054a4.419,4.419,0,0,1-4.387-3.94h.987a3.433,3.433,0,0,0,6.8,0h.987a4.419,4.419,0,0,1-4.387,3.94m8.925-25.531H58.115a.145.145,0,0,1-.145-.145v-13.1a.145.145,0,0,1,.145-.145h9.9a1.81,1.81,0,0,1,1.679,1.175l6.369,12.028a.129.129,0,0,1-.114.19m8.377,10.082a.155.155,0,0,1-.155.156H81.181a.154.154,0,0,1-.15-.116l-1.341-5.084a.155.155,0,0,1,.151-.194h4.33a.154.154,0,0,1,.155.155Z" fill="#232323"/></g></g></svg>