<?xml version="1.0"?>
<svg xmlns="http://www.w3.org/2000/svg"  version="1.1" width="20" height="20" viewBox="0 0 24 24" style="enable-background:new 0 0 512 512" xml:space="preserve" class=""><g><g xmlns="http://www.w3.org/2000/svg" id="_08_Person_Share_User" data-name="08 Person, Share, User"><path d="m11 11a5 5 0 1 1 5-5 5 5 0 0 1 -5 5zm0-8a3 3 0 1 0 3 3 3 3 0 0 0 -3-3zm-1 18h-5v-4a2 2 0 0 1 2-2h6v-2h-6a4 4 0 0 0 -4 4v5a1 1 0 0 0 1 1h6zm5 2h-3a1 1 0 0 1 -1-1v-3a1 1 0 0 1 .29-.71l4.5-4.5a3.14 3.14 0 0 1 4.42 0 3.14 3.14 0 0 1 0 4.42l-4.5 4.5a1 1 0 0 1 -.71.29zm-2-2h1.59l4.2-4.21a1.11 1.11 0 0 0 0-1.58 1.11 1.11 0 0 0 -1.58 0l-4.21 4.2z" fill="#ffffff" data-original="#000000" class=""/></g></g></svg>
