<svg xmlns="http://www.w3.org/2000/svg" width="24.028" height="24.028" viewBox="0 0 24.028 24.028">
    <path id="LUPA" d="M10.418-.015a10.418,10.418,0,1,0,0,20.835,10.3,10.3,0,0,0,4.941-1.22,2.976,2.976,0,0,0,.387.387l2.976,2.976a3.036,3.036,0,1,0,4.286-4.286L20.032,15.7a2.977,2.977,0,0,0-.476-.387,10.278,10.278,0,0,0,1.31-4.941A10.429,10.429,0,0,0,10.447-.045Zm0,2.976A7.406,7.406,0,0,1,17.859,10.4a7.464,7.464,0,0,1-1.964,5.12l-.089.089a2.976,2.976,0,0,0-.387.387,7.448,7.448,0,0,1-5.03,1.875,7.441,7.441,0,1,1,0-14.882Z" transform="translate(0 0.045)" fill="#111"/>
</svg>
