<svg xmlns="http://www.w3.org/2000/svg" width="20.967" height="20" viewBox="0 0 20.967 20"><path d="M20.346,7.11l-6.237-.535a.678.678,0,0,1-.567-.412L11.109.415a.679.679,0,0,0-1.251,0L7.423,6.163a.68.68,0,0,1-.567.412L.622,7.11A.679.679,0,0,0,.236,8.3l4.731,4.1a.677.677,0,0,1,.216.667l-1.42,6.1a.679.679,0,0,0,1.012.735l5.357-3.234a.678.678,0,0,1,.7,0L16.192,19.9a.679.679,0,0,0,1.012-.735l-1.417-6.1A.679.679,0,0,1,16,12.4l4.729-4.1a.679.679,0,0,0-.387-1.19" transform="translate(-0.001 0)" fill="#fcfcfc"/></svg>